<?xml version="1.0" encoding="UTF-8" standalone="no"?>
<!DOCTYPE score-partwise PUBLIC "-//Recordare//DTD MusicXML 4.0 Partwise//EN" "http://www.musicxml.org/dtds/partwise.dtd">
<score-partwise version="4.0">
  <work>
    <work-title>&quot;Atonal&quot; Lead Sheets</work-title>
  </work>
  <movement-title>Entflieht auf leichten Kähnen</movement-title>
  <identification>
    <creator type="composer">Anton Webern, Op.2</creator>
    <encoding>
      <software>Dorico 6.1.10.6078</software>
      <encoding-date>2026-01-17</encoding-date>
      <supports type="yes" element="print" attribute="new-system" value="yes"/>
      <supports type="yes" element="print" attribute="new-page" value="yes"/>
      <supports type="yes" element="accidental"/>
      <supports type="yes" element="beam"/>
      <supports type="yes" element="stem"/>
    </encoding>
  </identification>
  <defaults>
    <scaling>
      <millimeters>6.99911</millimeters>
      <tenths>40</tenths>
    </scaling>
    <page-layout>
      <page-height>1596.77</page-height>
      <page-width>1233.87</page-width>
      <page-margins type="both">
        <left-margin>84.6774</left-margin>
        <right-margin>84.6774</right-margin>
        <top-margin>84.6774</top-margin>
        <bottom-margin>84.6774</bottom-margin>
      </page-margins>
    </page-layout>
    <appearance>
      <line-width type="beam">5</line-width>
      <line-width type="bracket">5</line-width>
      <line-width type="enclosure">1.25</line-width>
      <line-width type="ending">2</line-width>
      <line-width type="extend">0.625</line-width>
      <line-width type="heavy barline">5</line-width>
      <line-width type="leger">1.66667</line-width>
      <line-width type="light barline">2</line-width>
      <line-width type="octave shift">0.833333</line-width>
      <line-width type="pedal">1.25</line-width>
      <line-width type="slur middle">2</line-width>
      <line-width type="slur tip">0.833333</line-width>
      <line-width type="staff">1.25</line-width>
      <line-width type="stem">1.2</line-width>
      <line-width type="tie middle">2.5</line-width>
      <line-width type="tie tip">1.25</line-width>
      <line-width type="tuplet bracket">1.25</line-width>
      <line-width type="wedge">1.66667</line-width>
      <note-size type="cue">75</note-size>
      <note-size type="grace">60</note-size>
      <note-size type="grace-cue">45</note-size>
      <distance type="hyphen">75</distance>
    </appearance>
    <music-font font-family="Bravura" font-size="19.84"/>
    <word-font font-family="Academico" font-size="9.92"/>
    <lyric-font font-family="Academico" font-size="10.912" name="verse"/>
    <lyric-font font-family="Academico" font-style="italic" font-size="10.912" name="chorus"/>
    <lyric-font font-family="Academico" font-style="italic" font-size="10.912" name="verse-translation"/>
    <lyric-font font-family="Academico" font-style="italic" font-size="10.912" name="chorus-translation"/>
  </defaults>
  <credit page="1">
    <credit-type>page number</credit-type>
    <credit-words font-family="Academico" font-size="10" justify="left" valign="top" default-x="83.75" default-y="1500" xml:space="preserve">2</credit-words>
  </credit>
  <credit page="1">
    <credit-type>part name</credit-type>
    <credit-words font-family="Academico" font-size="10" justify="center" valign="top" default-x="611.875" default-y="1500" xml:space="preserve">Treble staff</credit-words>
  </credit>
  <credit page="1">
    <credit-type>flow title</credit-type>
    <credit-words font-family="Academico" font-size="16" justify="center" valign="middle" default-x="611.875" default-y="729.375" xml:space="preserve">5. Entflieht auf leichten Kähnen</credit-words>
  </credit>
  <part-list>
    <score-part id="P1">
      <part-name print-object="no">Treble staff</part-name>
      <part-name-display print-object="no">
        <display-text/>
      </part-name-display>
      <part-abbreviation print-object="no">Tr.</part-abbreviation>
      <part-abbreviation-display print-object="no">
        <display-text/>
      </part-abbreviation-display>
      <score-instrument id="instrument-8">
        <instrument-name>Treble staff</instrument-name>
        <instrument-sound>keyboard.piano</instrument-sound>
      </score-instrument>
    </score-part>
  </part-list>
  <part id="P1">
    <measure number="1" width="230.625">
      <print>
        <system-layout>
          <system-margins>
            <left-margin>60</left-margin>
            <right-margin>0</right-margin>
          </system-margins>
          <top-system-distance>870</top-system-distance>
        </system-layout>
      </print>
      <attributes>
        <divisions>4</divisions>
        <key number="1">
          <fifths>0</fifths>
          <mode>none</mode>
        </key>
        <time>
          <beats>6</beats>
          <beat-type>8</beat-type>
        </time>
        <staves>1</staves>
        <clef number="1">
          <sign>G</sign>
          <line>2</line>
        </clef>
      </attributes>
      <note default-x="73.125">
        <pitch>
          <step>E</step>
          <octave>4</octave>
        </pitch>
        <duration>4</duration>
        <voice>1</voice>
        <type>quarter</type>
        <stem default-y="-5">up</stem>
        <staff>1</staff>
      </note>
      <backup>
        <duration>4</duration>
      </backup>
      <direction placement="below">
        <direction-type>
          <dynamics relative-x="1.25" default-y="-71.25">
            <f/>
          </dynamics>
        </direction-type>
        <staff>1</staff>
      </direction>
      <sound tempo="56"/>
      <direction placement="above" directive="yes" system="only-top">
        <direction-type>
          <metronome font-family="Bravura Text" font-style="normal" font-weight="normal" font-size="15.624" default-y="30">
            <beat-unit>eighth</beat-unit>
            <per-minute font-family="Academico" font-style="normal" font-weight="normal" font-size="8.928">112</per-minute>
          </metronome>
        </direction-type>
        <staff>1</staff>
      </direction>
      <forward>
        <duration>4</duration>
      </forward>
      <note default-x="116.875">
        <pitch>
          <step>D</step>
          <octave>4</octave>
        </pitch>
        <duration>2</duration>
        <voice>1</voice>
        <type>eighth</type>
        <stem default-y="-10">up</stem>
        <staff>1</staff>
      </note>
      <note default-x="155.625">
        <pitch>
          <step>G</step>
          <alter>1</alter>
          <octave>4</octave>
        </pitch>
        <duration>4</duration>
        <voice>1</voice>
        <type>quarter</type>
        <accidental>sharp</accidental>
        <stem default-y="3.75">up</stem>
        <staff>1</staff>
      </note>
      <note default-x="200">
        <pitch>
          <step>A</step>
          <octave>4</octave>
        </pitch>
        <duration>2</duration>
        <voice>1</voice>
        <type>eighth</type>
        <stem default-y="10">up</stem>
        <staff>1</staff>
      </note>
    </measure>
    <measure number="2" width="203.125">
      <print new-system="no" new-page="no"/>
      <attributes>
        <divisions>4</divisions>
      </attributes>
      <note default-x="16.875">
        <pitch>
          <step>A</step>
          <octave>4</octave>
        </pitch>
        <duration>2</duration>
        <voice>1</voice>
        <type>eighth</type>
        <stem default-y="10">up</stem>
        <staff>1</staff>
        <beam number="1">begin</beam>
      </note>
      <note default-x="48.125">
        <pitch>
          <step>A</step>
          <alter>1</alter>
          <octave>4</octave>
        </pitch>
        <duration>2</duration>
        <voice>1</voice>
        <type>eighth</type>
        <accidental>sharp</accidental>
        <stem default-y="11.25">up</stem>
        <staff>1</staff>
        <beam number="1">continue</beam>
      </note>
      <note default-x="79.375">
        <pitch>
          <step>B</step>
          <octave>4</octave>
        </pitch>
        <duration>2</duration>
        <voice>1</voice>
        <type>eighth</type>
        <stem default-y="12.5">up</stem>
        <staff>1</staff>
        <beam number="1">end</beam>
      </note>
      <note default-x="110">
        <pitch>
          <step>D</step>
          <octave>5</octave>
        </pitch>
        <duration>2</duration>
        <voice>1</voice>
        <type>eighth</type>
        <stem default-y="-47.5">down</stem>
        <staff>1</staff>
        <beam number="1">begin</beam>
      </note>
      <note default-x="141.25">
        <pitch>
          <step>E</step>
          <octave>5</octave>
        </pitch>
        <duration>2</duration>
        <voice>1</voice>
        <type>eighth</type>
        <stem default-y="-48.75">down</stem>
        <staff>1</staff>
        <beam number="1">continue</beam>
      </note>
      <note default-x="172.5">
        <pitch>
          <step>C</step>
          <alter>1</alter>
          <octave>5</octave>
        </pitch>
        <duration>2</duration>
        <voice>1</voice>
        <type>eighth</type>
        <accidental>sharp</accidental>
        <stem default-y="-50">down</stem>
        <staff>1</staff>
        <beam number="1">end</beam>
      </note>
    </measure>
    <measure number="3" width="185">
      <print new-system="no" new-page="no"/>
      <attributes>
        <divisions>4</divisions>
      </attributes>
      <note default-x="16.875">
        <pitch>
          <step>E</step>
          <octave>5</octave>
        </pitch>
        <duration>4</duration>
        <voice>1</voice>
        <type>quarter</type>
        <stem default-y="-40">down</stem>
        <staff>1</staff>
      </note>
      <note default-x="61.25">
        <pitch>
          <step>D</step>
          <octave>5</octave>
        </pitch>
        <duration>2</duration>
        <voice>1</voice>
        <type>eighth</type>
        <stem default-y="-45">down</stem>
        <staff>1</staff>
      </note>
      <note default-x="91.875">
        <pitch>
          <step>D</step>
          <alter>-1</alter>
          <octave>5</octave>
        </pitch>
        <duration>2</duration>
        <voice>1</voice>
        <type>eighth</type>
        <accidental>flat</accidental>
        <stem default-y="-45">down</stem>
        <staff>1</staff>
        <beam number="1">begin</beam>
      </note>
      <note default-x="123.125">
        <pitch>
          <step>C</step>
          <octave>5</octave>
        </pitch>
        <duration>2</duration>
        <voice>1</voice>
        <type>eighth</type>
        <accidental cautionary="yes">natural</accidental>
        <stem default-y="-48.75">down</stem>
        <staff>1</staff>
        <beam number="1">continue</beam>
      </note>
      <note default-x="154.375">
        <pitch>
          <step>B</step>
          <alter>-1</alter>
          <octave>4</octave>
        </pitch>
        <duration>2</duration>
        <voice>1</voice>
        <type>eighth</type>
        <accidental>flat</accidental>
        <stem default-y="-52.5">down</stem>
        <staff>1</staff>
        <beam number="1">end</beam>
      </note>
    </measure>
    <measure number="4" width="172.5">
      <print new-system="no" new-page="no"/>
      <attributes>
        <divisions>4</divisions>
      </attributes>
      <note default-x="22.5">
        <pitch>
          <step>B</step>
          <alter>-1</alter>
          <octave>4</octave>
        </pitch>
        <duration>4</duration>
        <voice>1</voice>
        <type>quarter</type>
        <accidental>flat</accidental>
        <stem default-y="-51.25">down</stem>
        <staff>1</staff>
      </note>
      <note default-x="66.25">
        <pitch>
          <step>B</step>
          <octave>4</octave>
        </pitch>
        <duration>2</duration>
        <voice>1</voice>
        <type>eighth</type>
        <accidental>natural</accidental>
        <stem default-y="-55">down</stem>
        <staff>1</staff>
      </note>
      <note default-x="97.5">
        <pitch>
          <step>F</step>
          <octave>5</octave>
        </pitch>
        <duration>4</duration>
        <voice>1</voice>
        <type>quarter</type>
        <stem default-y="-35">down</stem>
        <staff>1</staff>
      </note>
      <note default-x="141.25">
        <pitch>
          <step>D</step>
          <alter>-1</alter>
          <octave>5</octave>
        </pitch>
        <duration>2</duration>
        <voice>1</voice>
        <type>eighth</type>
        <accidental>flat</accidental>
        <stem default-y="-45">down</stem>
        <staff>1</staff>
      </note>
    </measure>
    <measure number="5" width="203.125">
      <print new-system="no" new-page="no"/>
      <attributes>
        <divisions>4</divisions>
      </attributes>
      <note default-x="16.875">
        <pitch>
          <step>C</step>
          <octave>5</octave>
        </pitch>
        <duration>2</duration>
        <voice>1</voice>
        <type>eighth</type>
        <stem default-y="-50">down</stem>
        <staff>1</staff>
        <beam number="1">begin</beam>
      </note>
      <note default-x="48.125">
        <pitch>
          <step>B</step>
          <octave>4</octave>
        </pitch>
        <duration>2</duration>
        <voice>1</voice>
        <type>eighth</type>
        <stem default-y="-52.5">down</stem>
        <staff>1</staff>
        <beam number="1">continue</beam>
      </note>
      <note default-x="79.375">
        <pitch>
          <step>A</step>
          <alter>1</alter>
          <octave>4</octave>
        </pitch>
        <duration>2</duration>
        <voice>1</voice>
        <type>eighth</type>
        <accidental>sharp</accidental>
        <stem default-y="-55">down</stem>
        <staff>1</staff>
        <beam number="1">end</beam>
      </note>
      <note default-x="110">
        <pitch>
          <step>A</step>
          <alter>1</alter>
          <octave>4</octave>
        </pitch>
        <duration>2</duration>
        <voice>1</voice>
        <type>eighth</type>
        <stem default-y="-55">down</stem>
        <staff>1</staff>
        <beam number="1">begin</beam>
      </note>
      <note default-x="141.25">
        <pitch>
          <step>B</step>
          <octave>4</octave>
        </pitch>
        <duration>2</duration>
        <voice>1</voice>
        <type>eighth</type>
        <stem default-y="-52.5">down</stem>
        <staff>1</staff>
        <beam number="1">continue</beam>
      </note>
      <note default-x="172.5">
        <pitch>
          <step>C</step>
          <alter>1</alter>
          <octave>5</octave>
        </pitch>
        <duration>2</duration>
        <voice>1</voice>
        <type>eighth</type>
        <accidental>sharp</accidental>
        <stem default-y="-50">down</stem>
        <staff>1</staff>
        <beam number="1">end</beam>
      </note>
    </measure>
    <measure number="6" width="350.625">
      <print new-system="yes" new-page="no">
        <system-layout>
          <system-margins>
            <left-margin>0</left-margin>
            <right-margin>515</right-margin>
          </system-margins>
          <system-distance>124.375</system-distance>
        </system-layout>
      </print>
      <attributes>
        <divisions>4</divisions>
      </attributes>
      <note default-x="53.125">
        <pitch>
          <step>F</step>
          <alter>1</alter>
          <octave>5</octave>
        </pitch>
        <duration>4</duration>
        <voice>1</voice>
        <type>quarter</type>
        <accidental>sharp</accidental>
        <stem default-y="-35">down</stem>
        <staff>1</staff>
      </note>
      <note default-x="140.625">
        <pitch>
          <step>D</step>
          <octave>5</octave>
        </pitch>
        <duration>2</duration>
        <voice>1</voice>
        <type>eighth</type>
        <stem default-y="-45">down</stem>
        <staff>1</staff>
      </note>
      <note default-x="201.875">
        <pitch>
          <step>C</step>
          <alter>1</alter>
          <octave>5</octave>
        </pitch>
        <duration>4</duration>
        <voice>1</voice>
        <type>quarter</type>
        <accidental>sharp</accidental>
        <stem default-y="-47.5">down</stem>
        <staff>1</staff>
      </note>
      <note default-x="288.75">
        <pitch>
          <step>B</step>
          <octave>4</octave>
        </pitch>
        <duration>2</duration>
        <voice>1</voice>
        <type>eighth</type>
        <stem default-y="-55">down</stem>
        <staff>1</staff>
      </note>
    </measure>
    <measure number="7" width="386.25">
      <print new-system="no" new-page="no"/>
      <attributes>
        <divisions>4</divisions>
      </attributes>
      <note default-x="16.875">
        <pitch>
          <step>D</step>
          <octave>5</octave>
        </pitch>
        <duration>2</duration>
        <voice>1</voice>
        <type>eighth</type>
        <stem default-y="-56.875">down</stem>
        <staff>1</staff>
        <beam number="1">begin</beam>
      </note>
      <note default-x="78.75">
        <pitch>
          <step>A</step>
          <octave>4</octave>
        </pitch>
        <duration>2</duration>
        <voice>1</voice>
        <type>eighth</type>
        <stem default-y="-56.875">down</stem>
        <staff>1</staff>
        <beam number="1">continue</beam>
      </note>
      <note default-x="140">
        <pitch>
          <step>B</step>
          <alter>-1</alter>
          <octave>4</octave>
        </pitch>
        <duration>2</duration>
        <voice>1</voice>
        <type>eighth</type>
        <accidental>flat</accidental>
        <stem default-y="-56.875">down</stem>
        <staff>1</staff>
        <beam number="1">end</beam>
      </note>
      <note default-x="201.875">
        <pitch>
          <step>A</step>
          <alter>-1</alter>
          <octave>4</octave>
        </pitch>
        <duration>2</duration>
        <voice>1</voice>
        <type>eighth</type>
        <accidental>flat</accidental>
        <stem default-y="10">up</stem>
        <staff>1</staff>
        <beam number="1">begin</beam>
      </note>
      <note default-x="263.125">
        <pitch>
          <step>G</step>
          <octave>4</octave>
        </pitch>
        <duration>2</duration>
        <voice>1</voice>
        <type>eighth</type>
        <stem default-y="8.75">up</stem>
        <staff>1</staff>
        <beam number="1">continue</beam>
      </note>
      <note default-x="324.375">
        <pitch>
          <step>G</step>
          <alter>-1</alter>
          <octave>4</octave>
        </pitch>
        <duration>2</duration>
        <voice>1</voice>
        <type>eighth</type>
        <accidental>flat</accidental>
        <stem default-y="7.5">up</stem>
        <staff>1</staff>
        <beam number="1">end</beam>
      </note>
    </measure>
    <measure number="8" width="308.125">
      <print new-system="no" new-page="no"/>
      <attributes>
        <divisions>4</divisions>
      </attributes>
      <note default-x="16.875">
        <pitch>
          <step>F</step>
          <octave>4</octave>
        </pitch>
        <duration>2</duration>
        <voice>1</voice>
        <type>eighth</type>
        <stem default-y="2.5">up</stem>
        <staff>1</staff>
        <beam number="1">begin</beam>
      </note>
      <note default-x="78.75">
        <pitch>
          <step>E</step>
          <alter>-1</alter>
          <octave>4</octave>
        </pitch>
        <duration>2</duration>
        <voice>1</voice>
        <type>eighth</type>
        <accidental>flat</accidental>
        <stem default-y="-2.5">up</stem>
        <staff>1</staff>
        <beam number="1">continue</beam>
      </note>
      <note default-x="140">
        <pitch>
          <step>D</step>
          <octave>4</octave>
        </pitch>
        <duration>2</duration>
        <tie type="start"/>
        <voice>1</voice>
        <type>eighth</type>
        <stem default-y="-7.5">up</stem>
        <staff>1</staff>
        <beam number="1">end</beam>
        <notations>
          <tied type="start" number="1" orientation="under" default-x="6.875" default-y="-52.5" bezier-x="18.75" bezier-y="-7.5"/>
        </notations>
      </note>
      <note default-x="201.875">
        <pitch>
          <step>D</step>
          <octave>4</octave>
        </pitch>
        <duration>6</duration>
        <tie type="stop"/>
        <voice>1</voice>
        <type>quarter</type>
        <dot/>
        <stem default-y="-10">up</stem>
        <staff>1</staff>
        <notations>
          <tied type="stop" number="1" orientation="under" default-x="6.875" default-y="-52.5" bezier-x="-18.75" bezier-y="-7.5"/>
        </notations>
      </note>
      <barline location="right">
        <bar-style>light-heavy</bar-style>
      </barline>
    </measure>
  </part>
</score-partwise>