<?xml version="1.0" encoding="UTF-8" standalone="no"?>
<svg width="161.925mm" height="209.55mm"
 viewBox="0 0 612 792"
 xmlns="http://www.w3.org/2000/svg" xmlns:xlink="http://www.w3.org/1999/xlink" version="1.2" baseProfile="tiny">
<title>01 - Full score - Test Melodies - 004</title>
<desc>Dorico6</desc>
<defs>
</defs>
<g fill="none" stroke="black" stroke-width="1" fill-rule="evenodd" stroke-linecap="square" stroke-linejoin="bevel" >

<g fill="none" stroke="#000000" stroke-opacity="1" stroke-width="0.62" stroke-linecap="butt" stroke-linejoin="miter" stroke-miterlimit="2" transform="matrix(1,0,0,1,-1877,0)"
font-family="Segoe UI" font-size="12" font-weight="400" font-style="normal" 
>
<polyline fill="none" vector-effect="none" points="1919,102 2447,102 " />
<polyline fill="none" vector-effect="none" points="1919,106.96 2447,106.96 " />
<polyline fill="none" vector-effect="none" points="1919,161.52 2447,161.52 " />
<polyline fill="none" vector-effect="none" points="1919,111.92 2447,111.92 " />
<polyline fill="none" vector-effect="none" points="1919,121.84 2447,121.84 " />
<polyline fill="none" vector-effect="none" points="1919,116.88 2447,116.88 " />
<polyline fill="none" vector-effect="none" points="1919,151.6 2447,151.6 " />
<polyline fill="none" vector-effect="none" points="1919,156.56 2447,156.56 " />
<polyline fill="none" vector-effect="none" points="1919,166.48 2447,166.48 " />
<polyline fill="none" vector-effect="none" points="1919,171.44 2447,171.44 " />
</g>

<g fill="none" stroke="#000000" stroke-opacity="1" stroke-width="0.992" stroke-linecap="butt" stroke-linejoin="miter" stroke-miterlimit="2" transform="matrix(1,0,0,1,-1877,0)"
font-family="Segoe UI" font-size="12" font-weight="400" font-style="normal" 
>
<polyline fill="none" vector-effect="none" points="2080.09,101.69 2080.09,171.75 " />
<polyline fill="none" vector-effect="none" points="2200.57,101.69 2200.57,171.75 " />
<polyline fill="none" vector-effect="none" points="2321.06,101.69 2321.06,171.75 " />
<polyline fill="none" vector-effect="none" points="2441.54,101.69 2441.54,171.75 " />
</g>

<g fill="none" stroke="#000000" stroke-opacity="1" stroke-width="2.48" stroke-linecap="butt" stroke-linejoin="miter" stroke-miterlimit="2" transform="matrix(1,0,0,1,-1877,0)"
font-family="Segoe UI" font-size="12" font-weight="400" font-style="normal" 
>
<polyline fill="none" vector-effect="none" points="2445.76,101.69 2445.76,171.75 " />
</g>

<g fill="none" stroke="#000000" stroke-opacity="1" stroke-width="0.992" stroke-linecap="butt" stroke-linejoin="miter" stroke-miterlimit="2" transform="matrix(1,0,0,1,-1877,0)"
font-family="Segoe UI" font-size="12" font-weight="400" font-style="normal" 
>
<polyline fill="none" vector-effect="none" points="1918.5,101.69 1918.5,171.75 " />
</g>

<g fill="none" stroke="#000000" stroke-opacity="1" stroke-width="0.5952" stroke-linecap="butt" stroke-linejoin="miter" stroke-miterlimit="2" transform="matrix(1,0,0,1,-1877,0)"
font-family="Segoe UI" font-size="12" font-weight="400" font-style="normal" 
>
<polyline fill="none" vector-effect="none" points="1969.74,110.353 1969.74,125.56 " />
<polyline fill="none" vector-effect="none" points="2004.06,107.873 2004.06,123.665 " />
<polyline fill="none" vector-effect="none" points="2023.87,110.353 2023.87,125.56 " />
<polyline fill="none" vector-effect="none" points="2051.88,112.833 2051.88,127.42 " />
<polyline fill="none" vector-effect="none" points="2094.31,98.28 2094.31,113.468 " />
<polyline fill="none" vector-effect="none" points="2116.34,112.833 2116.34,127.42 " />
<polyline fill="none" vector-effect="none" points="2144.35,110.353 2144.35,125.56 " />
<polyline fill="none" vector-effect="none" points="2214.8,100.14 2214.8,115.948 " />
<polyline fill="none" vector-effect="none" points="2242.81,98.28 2242.81,113.468 " />
<polyline fill="none" vector-effect="none" points="2270.82,96.42 2270.82,110.988 " />
<polyline fill="none" vector-effect="none" points="2335.28,98.28 2335.28,113.468 " />
<polyline fill="none" vector-effect="none" points="2357.31,112.833 2357.31,127.42 " />
<polyline fill="none" vector-effect="none" points="2385.32,110.353 2385.32,125.56 " />
</g>

<g fill="none" stroke="#000000" stroke-opacity="1" stroke-width="2.48" stroke-linecap="butt" stroke-linejoin="miter" stroke-miterlimit="2" transform="matrix(1,0,0,1,-1877,0)"
font-family="Segoe UI" font-size="12" font-weight="400" font-style="normal" 
>
<polyline fill="none" vector-effect="none" points="1915.28,99.52 1915.28,173.92 " />
</g>

<g fill="none" stroke="#000000" stroke-opacity="1" stroke-width="1" stroke-linecap="square" stroke-linejoin="bevel" transform="matrix(0.5,0,0,0.5,92.4428,109.44)"
font-family="Bravura" font-size="40" font-weight="400" font-style="normal" 
>
</g>

<g fill="#000000" fill-opacity="1" stroke="none" transform="matrix(0.5,0,0,0.5,92.4428,109.44)"
font-family="Bravura" font-size="40" font-weight="400" font-style="normal" 
>
<path vector-effect="none" fill-rule="nonzero" d="M4.32,5.6 C8.28,5.6 13.16,1.92 13.16,-1.88 C13.16,-4.12 11.36,-5.6 8.8,-5.6 C3.92,-5.6 0,-1.96 0,1.88 C0,4.2 1.92,5.6 4.32,5.6 "/>
</g>

<g fill="none" stroke="#000000" stroke-opacity="1" stroke-width="1" stroke-linecap="square" stroke-linejoin="bevel" transform="matrix(0.5,0,0,0.5,92.4428,109.44)"
font-family="Bravura" font-size="40" font-weight="400" font-style="normal" 
>
<text fill="#000000" fill-opacity="1" stroke="none" xml:space="preserve" x="0" y="0" font-family="Segoe UI" font-size="12" font-weight="400" font-style="normal" 
 ></text>
</g>

<g fill="none" stroke="#000000" stroke-opacity="1" stroke-width="1" stroke-linecap="square" stroke-linejoin="bevel" transform="matrix(0.5,0,0,0.5,126.762,124.32)"
font-family="Bravura" font-size="40" font-weight="400" font-style="normal" 
>
</g>

<g fill="#000000" fill-opacity="1" stroke="none" transform="matrix(0.5,0,0,0.5,126.762,124.32)"
font-family="Bravura" font-size="40" font-weight="400" font-style="normal" 
>
<path vector-effect="none" fill-rule="nonzero" d="M9.6,-30.4 C10.16,-28.72 10.44,-26.72 10.44,-24.92 C10.44,-22.56 9.44,-19.2 8.84,-17.84 C7.36,-14.48 5.36,-11.24 0,-9.44 L0,-0.04 C0,0.36 0.32,0.56 0.64,0.56 C1,0.56 1.52,0.32 1.6,-0.32 C2.28,-4.12 5.24,-7.6 7.28,-10.76 C9.8,-14.72 12.24,-19.48 12.24,-24.48 C12.24,-27.6 11.44,-30.44 11.12,-31.72 C10.8,-33 9,-32.12 9.6,-30.4 "/>
</g>

<g fill="none" stroke="#000000" stroke-opacity="1" stroke-width="1" stroke-linecap="square" stroke-linejoin="bevel" transform="matrix(0.5,0,0,0.5,126.762,124.32)"
font-family="Bravura" font-size="40" font-weight="400" font-style="normal" 
>
<text fill="#000000" fill-opacity="1" stroke="none" xml:space="preserve" x="0" y="0" font-family="Segoe UI" font-size="12" font-weight="400" font-style="normal" 
 ></text>
</g>

<g fill="none" stroke="#000000" stroke-opacity="1" stroke-width="1" stroke-linecap="square" stroke-linejoin="bevel" transform="matrix(0.5,0,0,0.5,126.762,106.96)"
font-family="Bravura" font-size="40" font-weight="400" font-style="normal" 
>
</g>

<g fill="#000000" fill-opacity="1" stroke="none" transform="matrix(0.5,0,0,0.5,126.762,106.96)"
font-family="Bravura" font-size="40" font-weight="400" font-style="normal" 
>
<path vector-effect="none" fill-rule="nonzero" d="M4.32,5.6 C8.28,5.6 13.16,1.92 13.16,-1.88 C13.16,-4.12 11.36,-5.6 8.8,-5.6 C3.92,-5.6 0,-1.96 0,1.88 C0,4.2 1.92,5.6 4.32,5.6 "/>
</g>

<g fill="none" stroke="#000000" stroke-opacity="1" stroke-width="1" stroke-linecap="square" stroke-linejoin="bevel" transform="matrix(0.5,0,0,0.5,126.762,106.96)"
font-family="Bravura" font-size="40" font-weight="400" font-style="normal" 
>
<text fill="#000000" fill-opacity="1" stroke="none" xml:space="preserve" x="0" y="0" font-family="Segoe UI" font-size="12" font-weight="400" font-style="normal" 
 ></text>
</g>

<g fill="none" stroke="#000000" stroke-opacity="1" stroke-width="1" stroke-linecap="square" stroke-linejoin="bevel" transform="matrix(0.5,0,0,0.5,146.568,109.44)"
font-family="Bravura" font-size="40" font-weight="400" font-style="normal" 
>
</g>

<g fill="#000000" fill-opacity="1" stroke="none" transform="matrix(0.5,0,0,0.5,146.568,109.44)"
font-family="Bravura" font-size="40" font-weight="400" font-style="normal" 
>
<path vector-effect="none" fill-rule="nonzero" d="M4.32,5.6 C8.28,5.6 13.16,1.92 13.16,-1.88 C13.16,-4.12 11.36,-5.6 8.8,-5.6 C3.92,-5.6 0,-1.96 0,1.88 C0,4.2 1.92,5.6 4.32,5.6 "/>
</g>

<g fill="none" stroke="#000000" stroke-opacity="1" stroke-width="1" stroke-linecap="square" stroke-linejoin="bevel" transform="matrix(0.5,0,0,0.5,146.568,109.44)"
font-family="Bravura" font-size="40" font-weight="400" font-style="normal" 
>
<text fill="#000000" fill-opacity="1" stroke="none" xml:space="preserve" x="0" y="0" font-family="Segoe UI" font-size="12" font-weight="400" font-style="normal" 
 ></text>
</g>

<g fill="none" stroke="#000000" stroke-opacity="1" stroke-width="1" stroke-linecap="square" stroke-linejoin="bevel" transform="matrix(0.5,0,0,0.5,174.579,111.92)"
font-family="Bravura" font-size="40" font-weight="400" font-style="normal" 
>
</g>

<g fill="#000000" fill-opacity="1" stroke="none" transform="matrix(0.5,0,0,0.5,174.579,111.92)"
font-family="Bravura" font-size="40" font-weight="400" font-style="normal" 
>
<path vector-effect="none" fill-rule="nonzero" d="M4.32,5.6 C8.28,5.6 13.16,1.92 13.16,-1.88 C13.16,-4.12 11.36,-5.6 8.8,-5.6 C3.92,-5.6 0,-1.96 0,1.88 C0,4.2 1.92,5.6 4.32,5.6 "/>
</g>

<g fill="none" stroke="#000000" stroke-opacity="1" stroke-width="1" stroke-linecap="square" stroke-linejoin="bevel" transform="matrix(0.5,0,0,0.5,174.579,111.92)"
font-family="Bravura" font-size="40" font-weight="400" font-style="normal" 
>
<text fill="#000000" fill-opacity="1" stroke="none" xml:space="preserve" x="0" y="0" font-family="Segoe UI" font-size="12" font-weight="400" font-style="normal" 
 ></text>
</g>

<g fill="none" stroke="#000000" stroke-opacity="1" stroke-width="1" stroke-linecap="square" stroke-linejoin="bevel" transform="matrix(0.5,0,0,0.5,211.032,114.4)"
font-family="Bravura" font-size="40" font-weight="400" font-style="normal" 
>
</g>

<g fill="#000000" fill-opacity="1" stroke="none" transform="matrix(0.5,0,0,0.5,211.032,114.4)"
font-family="Bravura" font-size="40" font-weight="400" font-style="normal" 
>
<path vector-effect="none" fill-rule="nonzero" d="M4.32,5.6 C8.28,5.6 13.16,1.92 13.16,-1.88 C13.16,-4.12 11.36,-5.6 8.8,-5.6 C3.92,-5.6 0,-1.96 0,1.88 C0,4.2 1.92,5.6 4.32,5.6 "/>
</g>

<g fill="none" stroke="#000000" stroke-opacity="1" stroke-width="1" stroke-linecap="square" stroke-linejoin="bevel" transform="matrix(0.5,0,0,0.5,211.032,114.4)"
font-family="Bravura" font-size="40" font-weight="400" font-style="normal" 
>
<text fill="#000000" fill-opacity="1" stroke="none" xml:space="preserve" x="0" y="0" font-family="Segoe UI" font-size="12" font-weight="400" font-style="normal" 
 ></text>
</g>

<g fill="none" stroke="#000000" stroke-opacity="1" stroke-width="1" stroke-linecap="square" stroke-linejoin="bevel" transform="matrix(0.5,0,0,0.5,239.043,111.92)"
font-family="Bravura" font-size="40" font-weight="400" font-style="normal" 
>
</g>

<g fill="#000000" fill-opacity="1" stroke="none" transform="matrix(0.5,0,0,0.5,239.043,111.92)"
font-family="Bravura" font-size="40" font-weight="400" font-style="normal" 
>
<path vector-effect="none" fill-rule="nonzero" d="M4.32,5.6 C8.28,5.6 13.16,1.92 13.16,-1.88 C13.16,-4.12 11.36,-5.6 8.8,-5.6 C3.92,-5.6 0,-1.96 0,1.88 C0,4.2 1.92,5.6 4.32,5.6 "/>
</g>

<g fill="none" stroke="#000000" stroke-opacity="1" stroke-width="1" stroke-linecap="square" stroke-linejoin="bevel" transform="matrix(0.5,0,0,0.5,239.043,111.92)"
font-family="Bravura" font-size="40" font-weight="400" font-style="normal" 
>
<text fill="#000000" fill-opacity="1" stroke="none" xml:space="preserve" x="0" y="0" font-family="Segoe UI" font-size="12" font-weight="400" font-style="normal" 
 ></text>
</g>

<g fill="none" stroke="#000000" stroke-opacity="1" stroke-width="1" stroke-linecap="square" stroke-linejoin="bevel" transform="matrix(0.5,0,0,0.5,267.054,109.44)"
font-family="Bravura" font-size="40" font-weight="400" font-style="normal" 
>
</g>

<g fill="#000000" fill-opacity="1" stroke="none" transform="matrix(0.5,0,0,0.5,267.054,109.44)"
font-family="Bravura" font-size="40" font-weight="400" font-style="normal" 
>
<path vector-effect="none" fill-rule="nonzero" d="M4.32,5.6 C8.28,5.6 13.16,1.92 13.16,-1.88 C13.16,-4.12 11.36,-5.6 8.8,-5.6 C3.92,-5.6 0,-1.96 0,1.88 C0,4.2 1.92,5.6 4.32,5.6 "/>
</g>

<g fill="none" stroke="#000000" stroke-opacity="1" stroke-width="1" stroke-linecap="square" stroke-linejoin="bevel" transform="matrix(0.5,0,0,0.5,267.054,109.44)"
font-family="Bravura" font-size="40" font-weight="400" font-style="normal" 
>
<text fill="#000000" fill-opacity="1" stroke="none" xml:space="preserve" x="0" y="0" font-family="Segoe UI" font-size="12" font-weight="400" font-style="normal" 
 ></text>
</g>

<g fill="none" stroke="#000000" stroke-opacity="1" stroke-width="1" stroke-linecap="square" stroke-linejoin="bevel" transform="matrix(0.5,0,0,0.5,295.049,111.92)"
font-family="Bravura" font-size="40" font-weight="400" font-style="normal" 
>
</g>

<g fill="#000000" fill-opacity="1" stroke="none" transform="matrix(0.5,0,0,0.5,295.049,111.92)"
font-family="Bravura" font-size="40" font-weight="400" font-style="normal" 
>
<path vector-effect="none" fill-rule="nonzero" d="M3.12,1.52 C3.76,2.32 4.32,3.08 4.84,3.92 C4.92,4.08 5.08,4.4 5.08,4.48 C5.08,4.52 5.08,4.6 5.04,4.64 C4.96,4.8 4.8,4.84 4.6,4.84 C4.44,4.84 4.12,4.76 3.96,4.72 C3.76,4.72 3.52,4.6 3.32,4.6 C1.6,4.6 0.04,6.32 0.04,8.44 C0.04,10.44 1.76,12.4 4.68,14.64 C5,14.88 5.4,15 5.72,15 C6,15 6.28,14.92 6.32,14.76 C6.36,14.64 6.4,14.56 6.4,14.48 C6.4,14.12 6.08,13.8 5.76,13.52 C5.24,13.52 4.8,12.44 4.72,12.08 C4.6,11.76 4.56,11.4 4.56,11.04 C4.56,9.8 5.16,8.4 6.44,8.16 C6.64,8.12 6.84,8.12 7.08,8.12 C8.24,8.12 9.56,8.56 10.2,8.8 C10.24,8.8 10.28,8.84 10.32,8.84 C10.44,8.88 10.52,8.88 10.6,8.88 C10.72,8.88 10.8,8.84 10.8,8.72 C10.8,8.24 9.76,6.92 9.32,6.44 C7.8,4.6 6.56,3.12 6.56,0.88 C6.56,0.72 6.6,0.52 6.6,0.36 C6.76,-1.96 8.2,-3.88 9.24,-5.52 C9.36,-5.72 9.4,-5.92 9.4,-6.12 C9.4,-6.52 9.24,-6.88 9.24,-6.88 C9.24,-6.88 3.32,-13.92 2.64,-14.6 C2.44,-14.8 2.16,-14.92 1.92,-14.92 C1.52,-14.92 1.12,-14.64 1.12,-14.08 C1.12,-13.88 1.16,-13.68 1.28,-13.44 C1.44,-13 3.72,-10.96 3.72,-8.08 C3.72,-6.6 3.12,-4.88 1.32,-3 C0.92,-2.6 0.76,-2.16 0.76,-1.84 C0.76,-1.28 1.16,-0.88 1.16,-0.88 L3.12,1.52"/>
</g>

<g fill="none" stroke="#000000" stroke-opacity="1" stroke-width="1" stroke-linecap="square" stroke-linejoin="bevel" transform="matrix(0.5,0,0,0.5,295.049,111.92)"
font-family="Bravura" font-size="40" font-weight="400" font-style="normal" 
>
<text fill="#000000" fill-opacity="1" stroke="none" xml:space="preserve" x="0" y="0" font-family="Segoe UI" font-size="12" font-weight="400" font-style="normal" 
 ></text>
</g>

<g fill="none" stroke="#000000" stroke-opacity="1" stroke-width="1" stroke-linecap="square" stroke-linejoin="bevel" transform="matrix(0.5,0,0,0.5,331.518,116.88)"
font-family="Bravura" font-size="40" font-weight="400" font-style="normal" 
>
</g>

<g fill="#000000" fill-opacity="1" stroke="none" transform="matrix(0.5,0,0,0.5,331.518,116.88)"
font-family="Bravura" font-size="40" font-weight="400" font-style="normal" 
>
<path vector-effect="none" fill-rule="nonzero" d="M4.32,5.6 C8.28,5.6 13.16,1.92 13.16,-1.88 C13.16,-4.12 11.36,-5.6 8.8,-5.6 C3.92,-5.6 0,-1.96 0,1.88 C0,4.2 1.92,5.6 4.32,5.6 "/>
</g>

<g fill="none" stroke="#000000" stroke-opacity="1" stroke-width="1" stroke-linecap="square" stroke-linejoin="bevel" transform="matrix(0.5,0,0,0.5,331.518,116.88)"
font-family="Bravura" font-size="40" font-weight="400" font-style="normal" 
>
<text fill="#000000" fill-opacity="1" stroke="none" xml:space="preserve" x="0" y="0" font-family="Segoe UI" font-size="12" font-weight="400" font-style="normal" 
 ></text>
</g>

<g fill="none" stroke="#000000" stroke-opacity="1" stroke-width="1" stroke-linecap="square" stroke-linejoin="bevel" transform="matrix(0.5,0,0,0.5,359.529,114.4)"
font-family="Bravura" font-size="40" font-weight="400" font-style="normal" 
>
</g>

<g fill="#000000" fill-opacity="1" stroke="none" transform="matrix(0.5,0,0,0.5,359.529,114.4)"
font-family="Bravura" font-size="40" font-weight="400" font-style="normal" 
>
<path vector-effect="none" fill-rule="nonzero" d="M4.32,5.6 C8.28,5.6 13.16,1.92 13.16,-1.88 C13.16,-4.12 11.36,-5.6 8.8,-5.6 C3.92,-5.6 0,-1.96 0,1.88 C0,4.2 1.92,5.6 4.32,5.6 "/>
</g>

<g fill="none" stroke="#000000" stroke-opacity="1" stroke-width="1" stroke-linecap="square" stroke-linejoin="bevel" transform="matrix(0.5,0,0,0.5,359.529,114.4)"
font-family="Bravura" font-size="40" font-weight="400" font-style="normal" 
>
<text fill="#000000" fill-opacity="1" stroke="none" xml:space="preserve" x="0" y="0" font-family="Segoe UI" font-size="12" font-weight="400" font-style="normal" 
 ></text>
</g>

<g fill="none" stroke="#000000" stroke-opacity="1" stroke-width="1" stroke-linecap="square" stroke-linejoin="bevel" transform="matrix(0.5,0,0,0.5,387.54,111.92)"
font-family="Bravura" font-size="40" font-weight="400" font-style="normal" 
>
</g>

<g fill="#000000" fill-opacity="1" stroke="none" transform="matrix(0.5,0,0,0.5,387.54,111.92)"
font-family="Bravura" font-size="40" font-weight="400" font-style="normal" 
>
<path vector-effect="none" fill-rule="nonzero" d="M4.32,5.6 C8.28,5.6 13.16,1.92 13.16,-1.88 C13.16,-4.12 11.36,-5.6 8.8,-5.6 C3.92,-5.6 0,-1.96 0,1.88 C0,4.2 1.92,5.6 4.32,5.6 "/>
</g>

<g fill="none" stroke="#000000" stroke-opacity="1" stroke-width="1" stroke-linecap="square" stroke-linejoin="bevel" transform="matrix(0.5,0,0,0.5,387.54,111.92)"
font-family="Bravura" font-size="40" font-weight="400" font-style="normal" 
>
<text fill="#000000" fill-opacity="1" stroke="none" xml:space="preserve" x="0" y="0" font-family="Segoe UI" font-size="12" font-weight="400" font-style="normal" 
 ></text>
</g>

<g fill="none" stroke="#000000" stroke-opacity="1" stroke-width="1" stroke-linecap="square" stroke-linejoin="bevel" transform="matrix(0.5,0,0,0.5,415.535,111.92)"
font-family="Bravura" font-size="40" font-weight="400" font-style="normal" 
>
</g>

<g fill="#000000" fill-opacity="1" stroke="none" transform="matrix(0.5,0,0,0.5,415.535,111.92)"
font-family="Bravura" font-size="40" font-weight="400" font-style="normal" 
>
<path vector-effect="none" fill-rule="nonzero" d="M3.12,1.52 C3.76,2.32 4.32,3.08 4.84,3.92 C4.92,4.08 5.08,4.4 5.08,4.48 C5.08,4.52 5.08,4.6 5.04,4.64 C4.96,4.8 4.8,4.84 4.6,4.84 C4.44,4.84 4.12,4.76 3.96,4.72 C3.76,4.72 3.52,4.6 3.32,4.6 C1.6,4.6 0.04,6.32 0.04,8.44 C0.04,10.44 1.76,12.4 4.68,14.64 C5,14.88 5.4,15 5.72,15 C6,15 6.28,14.92 6.32,14.76 C6.36,14.64 6.4,14.56 6.4,14.48 C6.4,14.12 6.08,13.8 5.76,13.52 C5.24,13.52 4.8,12.44 4.72,12.08 C4.6,11.76 4.56,11.4 4.56,11.04 C4.56,9.8 5.16,8.4 6.44,8.16 C6.64,8.12 6.84,8.12 7.08,8.12 C8.24,8.12 9.56,8.56 10.2,8.8 C10.24,8.8 10.28,8.84 10.32,8.84 C10.44,8.88 10.52,8.88 10.6,8.88 C10.72,8.88 10.8,8.84 10.8,8.72 C10.8,8.24 9.76,6.92 9.32,6.44 C7.8,4.6 6.56,3.12 6.56,0.88 C6.56,0.72 6.6,0.52 6.6,0.36 C6.76,-1.96 8.2,-3.88 9.24,-5.52 C9.36,-5.72 9.4,-5.92 9.4,-6.12 C9.4,-6.52 9.24,-6.88 9.24,-6.88 C9.24,-6.88 3.32,-13.92 2.64,-14.6 C2.44,-14.8 2.16,-14.92 1.92,-14.92 C1.52,-14.92 1.12,-14.64 1.12,-14.08 C1.12,-13.88 1.16,-13.68 1.28,-13.44 C1.44,-13 3.72,-10.96 3.72,-8.08 C3.72,-6.6 3.12,-4.88 1.32,-3 C0.92,-2.6 0.76,-2.16 0.76,-1.84 C0.76,-1.28 1.16,-0.88 1.16,-0.88 L3.12,1.52"/>
</g>

<g fill="none" stroke="#000000" stroke-opacity="1" stroke-width="1" stroke-linecap="square" stroke-linejoin="bevel" transform="matrix(0.5,0,0,0.5,415.535,111.92)"
font-family="Bravura" font-size="40" font-weight="400" font-style="normal" 
>
<text fill="#000000" fill-opacity="1" stroke="none" xml:space="preserve" x="0" y="0" font-family="Segoe UI" font-size="12" font-weight="400" font-style="normal" 
 ></text>
</g>

<g fill="none" stroke="#000000" stroke-opacity="1" stroke-width="1" stroke-linecap="square" stroke-linejoin="bevel" transform="matrix(0.5,0,0,0.5,452.004,114.4)"
font-family="Bravura" font-size="40" font-weight="400" font-style="normal" 
>
</g>

<g fill="#000000" fill-opacity="1" stroke="none" transform="matrix(0.5,0,0,0.5,452.004,114.4)"
font-family="Bravura" font-size="40" font-weight="400" font-style="normal" 
>
<path vector-effect="none" fill-rule="nonzero" d="M4.32,5.6 C8.28,5.6 13.16,1.92 13.16,-1.88 C13.16,-4.12 11.36,-5.6 8.8,-5.6 C3.92,-5.6 0,-1.96 0,1.88 C0,4.2 1.92,5.6 4.32,5.6 "/>
</g>

<g fill="none" stroke="#000000" stroke-opacity="1" stroke-width="1" stroke-linecap="square" stroke-linejoin="bevel" transform="matrix(0.5,0,0,0.5,452.004,114.4)"
font-family="Bravura" font-size="40" font-weight="400" font-style="normal" 
>
<text fill="#000000" fill-opacity="1" stroke="none" xml:space="preserve" x="0" y="0" font-family="Segoe UI" font-size="12" font-weight="400" font-style="normal" 
 ></text>
</g>

<g fill="none" stroke="#000000" stroke-opacity="1" stroke-width="1" stroke-linecap="square" stroke-linejoin="bevel" transform="matrix(0.5,0,0,0.5,480.015,111.92)"
font-family="Bravura" font-size="40" font-weight="400" font-style="normal" 
>
</g>

<g fill="#000000" fill-opacity="1" stroke="none" transform="matrix(0.5,0,0,0.5,480.015,111.92)"
font-family="Bravura" font-size="40" font-weight="400" font-style="normal" 
>
<path vector-effect="none" fill-rule="nonzero" d="M4.32,5.6 C8.28,5.6 13.16,1.92 13.16,-1.88 C13.16,-4.12 11.36,-5.6 8.8,-5.6 C3.92,-5.6 0,-1.96 0,1.88 C0,4.2 1.92,5.6 4.32,5.6 "/>
</g>

<g fill="none" stroke="#000000" stroke-opacity="1" stroke-width="1" stroke-linecap="square" stroke-linejoin="bevel" transform="matrix(0.5,0,0,0.5,480.015,111.92)"
font-family="Bravura" font-size="40" font-weight="400" font-style="normal" 
>
<text fill="#000000" fill-opacity="1" stroke="none" xml:space="preserve" x="0" y="0" font-family="Segoe UI" font-size="12" font-weight="400" font-style="normal" 
 ></text>
</g>

<g fill="none" stroke="#000000" stroke-opacity="1" stroke-width="1" stroke-linecap="square" stroke-linejoin="bevel" transform="matrix(0.5,0,0,0.5,508.026,109.44)"
font-family="Bravura" font-size="40" font-weight="400" font-style="normal" 
>
</g>

<g fill="#000000" fill-opacity="1" stroke="none" transform="matrix(0.5,0,0,0.5,508.026,109.44)"
font-family="Bravura" font-size="40" font-weight="400" font-style="normal" 
>
<path vector-effect="none" fill-rule="nonzero" d="M4.32,5.6 C8.28,5.6 13.16,1.92 13.16,-1.88 C13.16,-4.12 11.36,-5.6 8.8,-5.6 C3.92,-5.6 0,-1.96 0,1.88 C0,4.2 1.92,5.6 4.32,5.6 "/>
</g>

<g fill="none" stroke="#000000" stroke-opacity="1" stroke-width="1" stroke-linecap="square" stroke-linejoin="bevel" transform="matrix(0.5,0,0,0.5,508.026,109.44)"
font-family="Bravura" font-size="40" font-weight="400" font-style="normal" 
>
<text fill="#000000" fill-opacity="1" stroke="none" xml:space="preserve" x="0" y="0" font-family="Segoe UI" font-size="12" font-weight="400" font-style="normal" 
 ></text>
</g>

<g fill="none" stroke="#000000" stroke-opacity="1" stroke-width="1" stroke-linecap="square" stroke-linejoin="bevel" transform="matrix(0.5,0,0,0.5,536.021,111.92)"
font-family="Bravura" font-size="40" font-weight="400" font-style="normal" 
>
</g>

<g fill="#000000" fill-opacity="1" stroke="none" transform="matrix(0.5,0,0,0.5,536.021,111.92)"
font-family="Bravura" font-size="40" font-weight="400" font-style="normal" 
>
<path vector-effect="none" fill-rule="nonzero" d="M3.12,1.52 C3.76,2.32 4.32,3.08 4.84,3.92 C4.92,4.08 5.08,4.4 5.08,4.48 C5.08,4.52 5.08,4.6 5.04,4.64 C4.96,4.8 4.8,4.84 4.6,4.84 C4.44,4.84 4.12,4.76 3.96,4.72 C3.76,4.72 3.52,4.6 3.32,4.6 C1.6,4.6 0.04,6.32 0.04,8.44 C0.04,10.44 1.76,12.4 4.68,14.64 C5,14.88 5.4,15 5.72,15 C6,15 6.28,14.92 6.32,14.76 C6.36,14.64 6.4,14.56 6.4,14.48 C6.4,14.12 6.08,13.8 5.76,13.52 C5.24,13.52 4.8,12.44 4.72,12.08 C4.6,11.76 4.56,11.4 4.56,11.04 C4.56,9.8 5.16,8.4 6.44,8.16 C6.64,8.12 6.84,8.12 7.08,8.12 C8.24,8.12 9.56,8.56 10.2,8.8 C10.24,8.8 10.28,8.84 10.32,8.84 C10.44,8.88 10.52,8.88 10.6,8.88 C10.72,8.88 10.8,8.84 10.8,8.72 C10.8,8.24 9.76,6.92 9.32,6.44 C7.8,4.6 6.56,3.12 6.56,0.88 C6.56,0.72 6.6,0.52 6.6,0.36 C6.76,-1.96 8.2,-3.88 9.24,-5.52 C9.36,-5.72 9.4,-5.92 9.4,-6.12 C9.4,-6.52 9.24,-6.88 9.24,-6.88 C9.24,-6.88 3.32,-13.92 2.64,-14.6 C2.44,-14.8 2.16,-14.92 1.92,-14.92 C1.52,-14.92 1.12,-14.64 1.12,-14.08 C1.12,-13.88 1.16,-13.68 1.28,-13.44 C1.44,-13 3.72,-10.96 3.72,-8.08 C3.72,-6.6 3.12,-4.88 1.32,-3 C0.92,-2.6 0.76,-2.16 0.76,-1.84 C0.76,-1.28 1.16,-0.88 1.16,-0.88 L3.12,1.52"/>
</g>

<g fill="none" stroke="#000000" stroke-opacity="1" stroke-width="1" stroke-linecap="square" stroke-linejoin="bevel" transform="matrix(0.5,0,0,0.5,536.021,111.92)"
font-family="Bravura" font-size="40" font-weight="400" font-style="normal" 
>
<text fill="#000000" fill-opacity="1" stroke="none" xml:space="preserve" x="0" y="0" font-family="Segoe UI" font-size="12" font-weight="400" font-style="normal" 
 ></text>
</g>

<g fill="none" stroke="#000000" stroke-opacity="1" stroke-width="1" stroke-linecap="square" stroke-linejoin="bevel" transform="matrix(0.5,0,0,0.5,140.98,156.56)"
font-family="Bravura" font-size="40" font-weight="400" font-style="normal" 
>
</g>

<g fill="#000000" fill-opacity="1" stroke="none" transform="matrix(0.5,0,0,0.5,140.98,156.56)"
font-family="Bravura" font-size="40" font-weight="400" font-style="normal" 
>
<path vector-effect="none" fill-rule="nonzero" d="M11.28,4.36 L11.28,0.68 C11.28,0.08 10.8,-0.36 10.24,-0.36 L1.04,-0.36 C0.44,-0.36 0,0.08 0,0.68 L0,4.36 C0,4.92 0.44,5.4 1.04,5.4 L10.24,5.4 C10.8,5.4 11.28,4.92 11.28,4.36 "/>
</g>

<g fill="none" stroke="#000000" stroke-opacity="1" stroke-width="1" stroke-linecap="square" stroke-linejoin="bevel" transform="matrix(0.5,0,0,0.5,140.98,156.56)"
font-family="Bravura" font-size="40" font-weight="400" font-style="normal" 
>
<text fill="#000000" fill-opacity="1" stroke="none" xml:space="preserve" x="0" y="0" font-family="Segoe UI" font-size="12" font-weight="400" font-style="normal" 
 ></text>
</g>

<g fill="none" stroke="#000000" stroke-opacity="1" stroke-width="1" stroke-linecap="square" stroke-linejoin="bevel" transform="matrix(0.5,0,0,0.5,260.017,156.56)"
font-family="Bravura" font-size="40" font-weight="400" font-style="normal" 
>
</g>

<g fill="#000000" fill-opacity="1" stroke="none" transform="matrix(0.5,0,0,0.5,260.017,156.56)"
font-family="Bravura" font-size="40" font-weight="400" font-style="normal" 
>
<path vector-effect="none" fill-rule="nonzero" d="M11.28,4.36 L11.28,0.68 C11.28,0.08 10.8,-0.36 10.24,-0.36 L1.04,-0.36 C0.44,-0.36 0,0.08 0,0.68 L0,4.36 C0,4.92 0.44,5.4 1.04,5.4 L10.24,5.4 C10.8,5.4 11.28,4.92 11.28,4.36 "/>
</g>

<g fill="none" stroke="#000000" stroke-opacity="1" stroke-width="1" stroke-linecap="square" stroke-linejoin="bevel" transform="matrix(0.5,0,0,0.5,260.017,156.56)"
font-family="Bravura" font-size="40" font-weight="400" font-style="normal" 
>
<text fill="#000000" fill-opacity="1" stroke="none" xml:space="preserve" x="0" y="0" font-family="Segoe UI" font-size="12" font-weight="400" font-style="normal" 
 ></text>
</g>

<g fill="none" stroke="#000000" stroke-opacity="1" stroke-width="1" stroke-linecap="square" stroke-linejoin="bevel" transform="matrix(0.5,0,0,0.5,380.503,156.56)"
font-family="Bravura" font-size="40" font-weight="400" font-style="normal" 
>
</g>

<g fill="#000000" fill-opacity="1" stroke="none" transform="matrix(0.5,0,0,0.5,380.503,156.56)"
font-family="Bravura" font-size="40" font-weight="400" font-style="normal" 
>
<path vector-effect="none" fill-rule="nonzero" d="M11.28,4.36 L11.28,0.68 C11.28,0.08 10.8,-0.36 10.24,-0.36 L1.04,-0.36 C0.44,-0.36 0,0.08 0,0.68 L0,4.36 C0,4.92 0.44,5.4 1.04,5.4 L10.24,5.4 C10.8,5.4 11.28,4.92 11.28,4.36 "/>
</g>

<g fill="none" stroke="#000000" stroke-opacity="1" stroke-width="1" stroke-linecap="square" stroke-linejoin="bevel" transform="matrix(0.5,0,0,0.5,380.503,156.56)"
font-family="Bravura" font-size="40" font-weight="400" font-style="normal" 
>
<text fill="#000000" fill-opacity="1" stroke="none" xml:space="preserve" x="0" y="0" font-family="Segoe UI" font-size="12" font-weight="400" font-style="normal" 
 ></text>
</g>

<g fill="none" stroke="#000000" stroke-opacity="1" stroke-width="1" stroke-linecap="square" stroke-linejoin="bevel" transform="matrix(0.5,0,0,0.5,500.989,156.56)"
font-family="Bravura" font-size="40" font-weight="400" font-style="normal" 
>
</g>

<g fill="#000000" fill-opacity="1" stroke="none" transform="matrix(0.5,0,0,0.5,500.989,156.56)"
font-family="Bravura" font-size="40" font-weight="400" font-style="normal" 
>
<path vector-effect="none" fill-rule="nonzero" d="M11.28,4.36 L11.28,0.68 C11.28,0.08 10.8,-0.36 10.24,-0.36 L1.04,-0.36 C0.44,-0.36 0,0.08 0,0.68 L0,4.36 C0,4.92 0.44,5.4 1.04,5.4 L10.24,5.4 C10.8,5.4 11.28,4.92 11.28,4.36 "/>
</g>

<g fill="none" stroke="#000000" stroke-opacity="1" stroke-width="1" stroke-linecap="square" stroke-linejoin="bevel" transform="matrix(0.5,0,0,0.5,500.989,156.56)"
font-family="Bravura" font-size="40" font-weight="400" font-style="normal" 
>
<text fill="#000000" fill-opacity="1" stroke="none" xml:space="preserve" x="0" y="0" font-family="Segoe UI" font-size="12" font-weight="400" font-style="normal" 
 ></text>
</g>

<g fill="none" stroke="#000000" stroke-opacity="1" stroke-width="1" stroke-linecap="square" stroke-linejoin="bevel" transform="matrix(0.5,0,0,0.5,37.04,99.52)"
font-family="Bravura" font-size="40" font-weight="400" font-style="normal" 
>
</g>

<g fill="#000000" fill-opacity="1" stroke="none" transform="matrix(0.5,0,0,0.5,37.04,99.52)"
font-family="Bravura" font-size="40" font-weight="400" font-style="normal" 
>
<path vector-effect="none" fill-rule="nonzero" d="M0,0 L5,0 C11.4,-1.2 17.12,-4.16 18.72,-10.84 C18.76,-11 18.76,-11.12 18.76,-11.24 C18.76,-11.56 18.64,-11.72 18.44,-11.8 C18.08,-11.8 17.64,-11.52 17.44,-11.24 C17.04,-10.8 12,-5.52 4.36,-4.96 L0.32,-4.96 C0.08,-4.96 0,-4.92 0,-4.68 L0,0"/>
</g>

<g fill="none" stroke="#000000" stroke-opacity="1" stroke-width="1" stroke-linecap="square" stroke-linejoin="bevel" transform="matrix(0.5,0,0,0.5,37.04,99.52)"
font-family="Bravura" font-size="40" font-weight="400" font-style="normal" 
>
<text fill="#000000" fill-opacity="1" stroke="none" xml:space="preserve" x="0" y="0" font-family="Segoe UI" font-size="12" font-weight="400" font-style="normal" 
 ></text>
</g>

<g fill="none" stroke="#000000" stroke-opacity="1" stroke-width="1" stroke-linecap="square" stroke-linejoin="bevel" transform="matrix(0.5,0,0,0.5,37.04,173.92)"
font-family="Bravura" font-size="40" font-weight="400" font-style="normal" 
>
</g>

<g fill="#000000" fill-opacity="1" stroke="none" transform="matrix(0.5,0,0,0.5,37.04,173.92)"
font-family="Bravura" font-size="40" font-weight="400" font-style="normal" 
>
<path vector-effect="none" fill-rule="nonzero" d="M0,4.68 C0,4.92 0.08,4.96 0.32,4.96 L4.36,4.96 C12,5.52 17.04,10.8 17.44,11.24 C17.64,11.52 18.08,11.8 18.44,11.8 C18.64,11.72 18.76,11.56 18.76,11.24 C18.76,11.12 18.76,11 18.72,10.84 C17.12,4.16 11.4,1.2 5,0 L0,0 L0,4.68"/>
</g>

<g fill="none" stroke="#000000" stroke-opacity="1" stroke-width="1" stroke-linecap="square" stroke-linejoin="bevel" transform="matrix(0.5,0,0,0.5,37.04,173.92)"
font-family="Bravura" font-size="40" font-weight="400" font-style="normal" 
>
<text fill="#000000" fill-opacity="1" stroke="none" xml:space="preserve" x="0" y="0" font-family="Segoe UI" font-size="12" font-weight="400" font-style="normal" 
 ></text>
</g>

<g fill="none" stroke="#000000" stroke-opacity="1" stroke-width="1" stroke-linecap="square" stroke-linejoin="bevel" transform="matrix(0.5,0,0,0.5,44.48,116.88)"
font-family="Bravura" font-size="40" font-weight="400" font-style="normal" 
>
</g>

<g fill="#000000" fill-opacity="1" stroke="none" transform="matrix(0.5,0,0,0.5,44.48,116.88)"
font-family="Bravura" font-size="40" font-weight="400" font-style="normal" 
>
<path vector-effect="none" fill-rule="nonzero" d="M18.8,-37.72 C20.12,-37.72 21.2,-36.64 21.2,-34.44 C21.2,-31.68 19.88,-29.12 16.76,-26 C16.12,-25.36 15.16,-24.44 14.24,-23.64 C13.96,-23.4 13.8,-23.44 13.72,-23.96 C13.56,-25 13.48,-26.36 13.48,-27.64 C13.48,-33.88 16.36,-37.72 18.8,-37.72 M17.2,-4.12 C17.12,-4.6 17.16,-4.72 17.64,-4.68 C20.88,-4.4 23.56,-1.68 23.56,1.84 C23.56,4.36 22.04,6.4 19.8,7.52 C19.32,7.76 19.24,7.76 19.16,7.28 L17.2,-4.12 M14.44,-10.48 C14.56,-9.72 14.56,-9.76 13.84,-9.52 C10.32,-8.32 8.04,-5.16 8.04,-1.76 C8.04,1.84 9.92,4.4 12.64,5.32 C12.96,5.44 13.44,5.56 13.72,5.56 C14.04,5.56 14.2,5.36 14.2,5.12 C14.2,4.84 13.88,4.72 13.6,4.6 C11.92,3.88 10.72,2.16 10.72,0.32 C10.72,-1.96 12.28,-3.68 14.72,-4.36 C15.36,-4.52 15.44,-4.48 15.52,-4.04 L17.52,7.88 C17.6,8.32 17.56,8.32 16.96,8.44 C16.32,8.56 15.52,8.64 14.72,8.64 C7.72,8.64 3.2,4.76 3.2,-0.8 C3.2,-3.16 3.6,-6.32 6.92,-10.08 C9.32,-12.76 11.16,-14.24 13.04,-15.76 C13.44,-16.08 13.52,-16.04 13.6,-15.6 L14.44,-10.48 M15.04,-16.6 C14.96,-17.08 15.04,-17.12 15.28,-17.36 C15.92,-17.96 16.76,-18.8 17.52,-19.64 C20.88,-23.32 22.88,-28.08 22.88,-32.6 C22.88,-36.08 21.92,-39.52 20.28,-41.92 C19.68,-42.8 18.64,-43.92 18.2,-43.92 C17.64,-43.92 16.4,-42.88 15.6,-42 C12.64,-38.72 11.68,-33.72 11.68,-29.56 C11.68,-27.24 11.96,-24.64 12.24,-23 C12.32,-22.52 12.36,-22.44 11.88,-22.04 C9.32,-19.92 6.56,-17.48 4.48,-14.92 C1.72,-11.48 0,-7.76 0,-3.48 C0,3.48 4.76,10.08 14.56,10.08 C15.48,10.08 16.52,10 17.32,9.84 C17.76,9.76 17.84,9.72 17.92,10.2 C18.4,12.88 19,16.36 19,18.24 C19,24.16 15,24.88 12.64,24.88 C10.48,24.88 9.44,24.24 9.44,23.72 C9.44,23.44 9.8,23.32 10.72,23.04 C11.96,22.68 13.4,21.6 13.4,19.28 C13.4,17.08 12,15.2 9.56,15.2 C6.88,15.2 5.28,17.32 5.28,19.8 C5.28,22.4 6.84,26.32 12.88,26.32 C15.56,26.32 20.76,25.12 20.76,18.32 C20.76,16.04 20.04,12.24 19.6,9.76 C19.52,9.28 19.56,9.32 20.12,9.08 C24.16,7.48 26.84,4.08 26.84,-0.44 C26.84,-5.56 23.08,-10.08 17.2,-10.08 C16.16,-10.08 16.16,-10.08 16.04,-10.8 L15.04,-16.6"/>
</g>

<g fill="none" stroke="#000000" stroke-opacity="1" stroke-width="1" stroke-linecap="square" stroke-linejoin="bevel" transform="matrix(0.5,0,0,0.5,44.48,116.88)"
font-family="Bravura" font-size="40" font-weight="400" font-style="normal" 
>
<text fill="#000000" fill-opacity="1" stroke="none" xml:space="preserve" x="0" y="0" font-family="Segoe UI" font-size="12" font-weight="400" font-style="normal" 
 ></text>
</g>

<g fill="none" stroke="#000000" stroke-opacity="1" stroke-width="1" stroke-linecap="square" stroke-linejoin="bevel" transform="matrix(0.5,0,0,0.5,63.2134,111.92)"
font-family="Bravura" font-size="40" font-weight="400" font-style="normal" 
>
</g>

<g fill="#000000" fill-opacity="1" stroke="none" transform="matrix(0.5,0,0,0.5,63.2134,111.92)"
font-family="Bravura" font-size="40" font-weight="400" font-style="normal" 
>
<path vector-effect="none" fill-rule="nonzero" d="M1.88,3.24 C1.88,3.24 1.76,0.84 1.76,-0.76 C1.76,-1.4 1.8,-1.88 1.84,-2.04 C2,-2.52 3.04,-3.4 3.6,-3.72 C3.96,-3.92 4.32,-4 4.64,-4 C5.04,-4 5.4,-3.84 5.64,-3.56 C6.04,-3.12 6.28,-2.44 6.28,-1.68 C6.28,-0.96 6.08,-0.12 5.6,0.72 C5.08,1.68 3.92,2.96 2.72,3.72 C2.56,3.8 2.44,3.84 2.32,3.84 C1.96,3.84 1.88,3.44 1.88,3.24 M0.48,6.8 C0.6,6.96 0.72,7 0.84,7 C0.96,7 1.08,6.92 1.08,6.92 C2.28,6.24 3.24,5.16 4.24,4.48 C7.8,2 9.04,-0.44 9.04,-2.28 C9.04,-4.56 7.28,-6 5.44,-6.12 C5.16,-6.12 4.88,-6.08 4.6,-6 C4.16,-5.88 3.68,-5.72 3.24,-5.44 C3,-5.24 2.56,-4.88 2.36,-4.88 C2.28,-4.88 2.24,-4.88 2.16,-4.92 C1.88,-5.04 1.72,-5.32 1.72,-5.6 C1.76,-6.48 2,-16.08 2,-16.88 C2,-17.32 1.64,-17.56 1.24,-17.56 C0.68,-17.56 0.04,-17.16 0,-16.44 C0,-16.44 0.16,6.4 0.48,6.8 "/>
</g>

<g fill="none" stroke="#000000" stroke-opacity="1" stroke-width="1" stroke-linecap="square" stroke-linejoin="bevel" transform="matrix(0.5,0,0,0.5,63.2134,111.92)"
font-family="Bravura" font-size="40" font-weight="400" font-style="normal" 
>
<text fill="#000000" fill-opacity="1" stroke="none" xml:space="preserve" x="0" y="0" font-family="Segoe UI" font-size="12" font-weight="400" font-style="normal" 
 ></text>
</g>

<g fill="none" stroke="#000000" stroke-opacity="1" stroke-width="1" stroke-linecap="square" stroke-linejoin="bevel" transform="matrix(0.5,0,0,0.5,44.5738,156.56)"
font-family="Bravura" font-size="40" font-weight="400" font-style="normal" 
>
</g>

<g fill="#000000" fill-opacity="1" stroke="none" transform="matrix(0.5,0,0,0.5,44.5738,156.56)"
font-family="Bravura" font-size="40" font-weight="400" font-style="normal" 
>
<path vector-effect="none" fill-rule="nonzero" d="M10.08,-10.48 C3.12,-10.48 0,-5.4 0,-1.56 C0,1.64 1.68,4.4 4.92,4.4 C7.44,4.4 9.16,2.64 9.16,0.16 C9.16,-2.4 7.28,-4 5.32,-4 C4.24,-4 3.84,-3.72 3.32,-3.72 C2.8,-3.72 2.68,-4.04 2.68,-4.44 C2.68,-6.04 5.08,-8.96 9.16,-8.96 C13.4,-8.96 15.24,-4.8 15.24,1.48 C15.24,5.6 14.36,10.4 11.88,14.24 C9.48,17.96 5.36,21.36 0.4,24.2 C0.04,24.4 -0.2,24.6 -0.2,24.92 C-0.2,25.16 -0.04,25.4 0.32,25.4 C0.52,25.4 0.76,25.32 1,25.2 C6.32,22.6 11.44,19.56 15.68,15 C19.16,11.24 21.24,6.36 21.24,1.12 C21.24,-5.84 17,-10.48 10.08,-10.48 M25.2,2.84 C23.96,2.84 23.04,3.76 23.04,5 C23.04,6.24 23.96,7.16 25.2,7.16 C26.44,7.16 27.36,6.24 27.36,5 C27.36,3.76 26.44,2.84 25.2,2.84 M25.16,-7.2 C23.92,-7.2 22.96,-6.24 22.96,-5 C22.96,-3.76 23.92,-2.8 25.16,-2.8 C26.4,-2.8 27.36,-3.76 27.36,-5 C27.36,-6.24 26.4,-7.2 25.16,-7.2 "/>
</g>

<g fill="none" stroke="#000000" stroke-opacity="1" stroke-width="1" stroke-linecap="square" stroke-linejoin="bevel" transform="matrix(0.5,0,0,0.5,44.5738,156.56)"
font-family="Bravura" font-size="40" font-weight="400" font-style="normal" 
>
<text fill="#000000" fill-opacity="1" stroke="none" xml:space="preserve" x="0" y="0" font-family="Segoe UI" font-size="12" font-weight="400" font-style="normal" 
 ></text>
</g>

<g fill="none" stroke="#000000" stroke-opacity="1" stroke-width="1" stroke-linecap="square" stroke-linejoin="bevel" transform="matrix(0.5,0,0,0.5,63.2134,166.48)"
font-family="Bravura" font-size="40" font-weight="400" font-style="normal" 
>
</g>

<g fill="#000000" fill-opacity="1" stroke="none" transform="matrix(0.5,0,0,0.5,63.2134,166.48)"
font-family="Bravura" font-size="40" font-weight="400" font-style="normal" 
>
<path vector-effect="none" fill-rule="nonzero" d="M1.88,3.24 C1.88,3.24 1.76,0.84 1.76,-0.76 C1.76,-1.4 1.8,-1.88 1.84,-2.04 C2,-2.52 3.04,-3.4 3.6,-3.72 C3.96,-3.92 4.32,-4 4.64,-4 C5.04,-4 5.4,-3.84 5.64,-3.56 C6.04,-3.12 6.28,-2.44 6.28,-1.68 C6.28,-0.96 6.08,-0.12 5.6,0.72 C5.08,1.68 3.92,2.96 2.72,3.72 C2.56,3.8 2.44,3.84 2.32,3.84 C1.96,3.84 1.88,3.44 1.88,3.24 M0.48,6.8 C0.6,6.96 0.72,7 0.84,7 C0.96,7 1.08,6.92 1.08,6.92 C2.28,6.24 3.24,5.16 4.24,4.48 C7.8,2 9.04,-0.44 9.04,-2.28 C9.04,-4.56 7.28,-6 5.44,-6.12 C5.16,-6.12 4.88,-6.08 4.6,-6 C4.16,-5.88 3.68,-5.72 3.24,-5.44 C3,-5.24 2.56,-4.88 2.36,-4.88 C2.28,-4.88 2.24,-4.88 2.16,-4.92 C1.88,-5.04 1.72,-5.32 1.72,-5.6 C1.76,-6.48 2,-16.08 2,-16.88 C2,-17.32 1.64,-17.56 1.24,-17.56 C0.68,-17.56 0.04,-17.16 0,-16.44 C0,-16.44 0.16,6.4 0.48,6.8 "/>
</g>

<g fill="none" stroke="#000000" stroke-opacity="1" stroke-width="1" stroke-linecap="square" stroke-linejoin="bevel" transform="matrix(0.5,0,0,0.5,63.2134,166.48)"
font-family="Bravura" font-size="40" font-weight="400" font-style="normal" 
>
<text fill="#000000" fill-opacity="1" stroke="none" xml:space="preserve" x="0" y="0" font-family="Segoe UI" font-size="12" font-weight="400" font-style="normal" 
 ></text>
</g>

<g fill="none" stroke="#000000" stroke-opacity="1" stroke-width="1" stroke-linecap="square" stroke-linejoin="bevel" transform="matrix(0.5,0,0,0.5,72.2906,106.92)"
font-family="Bravura" font-size="40" font-weight="400" font-style="normal" 
>
<text fill="#000000" fill-opacity="1" stroke="none" xml:space="preserve" x="0" y="0" font-family="Bravura" font-size="40" font-weight="400" font-style="normal" 
 ></text>
</g>

<g fill="none" stroke="#000000" stroke-opacity="1" stroke-width="1" stroke-linecap="square" stroke-linejoin="bevel" transform="matrix(0.5,0,0,0.5,72.2906,116.936)"
font-family="Bravura" font-size="40" font-weight="400" font-style="normal" 
>
<text fill="#000000" fill-opacity="1" stroke="none" xml:space="preserve" x="0" y="0" font-family="Bravura" font-size="40" font-weight="400" font-style="normal" 
 ></text>
</g>

<g fill="none" stroke="#000000" stroke-opacity="1" stroke-width="1" stroke-linecap="square" stroke-linejoin="bevel" transform="matrix(0.5,0,0,0.5,72.2906,156.52)"
font-family="Bravura" font-size="40" font-weight="400" font-style="normal" 
>
<text fill="#000000" fill-opacity="1" stroke="none" xml:space="preserve" x="0" y="0" font-family="Bravura" font-size="40" font-weight="400" font-style="normal" 
 ></text>
</g>

<g fill="none" stroke="#000000" stroke-opacity="1" stroke-width="1" stroke-linecap="square" stroke-linejoin="bevel" transform="matrix(0.5,0,0,0.5,72.2906,166.536)"
font-family="Bravura" font-size="40" font-weight="400" font-style="normal" 
>
<text fill="#000000" fill-opacity="1" stroke="none" xml:space="preserve" x="0" y="0" font-family="Bravura" font-size="40" font-weight="400" font-style="normal" 
 ></text>
</g>

<g fill="none" stroke="#000000" stroke-opacity="1" stroke-width="1" stroke-linecap="square" stroke-linejoin="bevel" transform="matrix(0.5,0,0,0.5,101.501,109.44)"
font-family="Bravura" font-size="40" font-weight="400" font-style="normal" 
>
</g>

<g fill="#000000" fill-opacity="1" stroke="none" transform="matrix(0.5,0,0,0.5,101.501,109.44)"
font-family="Bravura" font-size="40" font-weight="400" font-style="normal" 
>
<path vector-effect="none" fill-rule="nonzero" d="M4,0 C4,-1.12 3.12,-2 2,-2 C0.88,-2 0,-1.12 0,0 C0,1.12 0.88,2 2,2 C3.12,2 4,1.12 4,0 "/>
</g>

<g fill="none" stroke="#000000" stroke-opacity="1" stroke-width="1" stroke-linecap="square" stroke-linejoin="bevel" transform="matrix(0.5,0,0,0.5,101.501,109.44)"
font-family="Bravura" font-size="40" font-weight="400" font-style="normal" 
>
<text fill="#000000" fill-opacity="1" stroke="none" xml:space="preserve" x="0" y="0" font-family="Segoe UI" font-size="12" font-weight="400" font-style="normal" 
 ></text>
</g>

<g fill="none" stroke="#000000" stroke-opacity="1" stroke-width="2" stroke-linecap="butt" stroke-linejoin="miter" stroke-miterlimit="2" transform="matrix(1,0,0,1,-1877,0)"
font-family="Bravura" font-size="40" font-weight="400" font-style="normal" 
>
</g>

<g fill="none" stroke="#000000" stroke-opacity="1" stroke-width="2" stroke-linecap="butt" stroke-linejoin="miter" stroke-miterlimit="2" transform="matrix(0.5,0,0,0.5,42,42)"
font-family="Bravura" font-size="40" font-weight="400" font-style="normal" 
>
</g>

<g fill="none" stroke="#000000" stroke-opacity="1" stroke-width="2" stroke-linecap="butt" stroke-linejoin="miter" stroke-miterlimit="2" transform="matrix(0.5,0,0,0.5,42,42)"
font-family="Bravura" font-size="40" font-weight="400" font-style="normal" 
>
</g>

<g fill="none" stroke="#000000" stroke-opacity="1" stroke-width="1" stroke-linecap="square" stroke-linejoin="bevel" transform="matrix(0.5,0,0,0.5,42,42)"
font-family="Bravura" font-size="40" font-weight="400" font-style="normal" 
>
<text fill="#000000" fill-opacity="1" stroke="none" xml:space="preserve" x="0" y="19.5938" font-family="Academico" font-size="20" font-weight="400" font-style="normal" 
 >4</text>
</g>

<g fill="none" stroke="#000000" stroke-opacity="1" stroke-width="2" stroke-linecap="butt" stroke-linejoin="miter" stroke-miterlimit="2" transform="matrix(0.5,0,0,0.5,42,42)"
font-family="Bravura" font-size="40" font-weight="400" font-style="normal" 
>
</g>

<g fill="none" stroke="#000000" stroke-opacity="1" stroke-width="2" stroke-linecap="butt" stroke-linejoin="miter" stroke-miterlimit="2" transform="matrix(1,0,0,1,-1877,0)"
font-family="Bravura" font-size="40" font-weight="400" font-style="normal" 
>
</g>

<g fill="none" stroke="#000000" stroke-opacity="1" stroke-width="2" stroke-linecap="butt" stroke-linejoin="miter" stroke-miterlimit="2" transform="matrix(0.5,0,0,0.5,42,42)"
font-family="Bravura" font-size="40" font-weight="400" font-style="normal" 
>
</g>

<g fill="none" stroke="#000000" stroke-opacity="1" stroke-width="2" stroke-linecap="butt" stroke-linejoin="miter" stroke-miterlimit="2" transform="matrix(0.5,0,0,0.5,42,42)"
font-family="Bravura" font-size="40" font-weight="400" font-style="normal" 
>
</g>

<g fill="none" stroke="#000000" stroke-opacity="1" stroke-width="1" stroke-linecap="square" stroke-linejoin="bevel" transform="matrix(0.5,0,0,0.5,42,42)"
font-family="Bravura" font-size="40" font-weight="400" font-style="normal" 
>
<text fill="#000000" fill-opacity="1" stroke="none" xml:space="preserve" x="497.078" y="19.5938" font-family="Academico" font-size="20" font-weight="400" font-style="normal" 
 >Flow 9</text>
</g>

<g fill="none" stroke="#000000" stroke-opacity="1" stroke-width="2" stroke-linecap="butt" stroke-linejoin="miter" stroke-miterlimit="2" transform="matrix(0.5,0,0,0.5,42,42)"
font-family="Bravura" font-size="40" font-weight="400" font-style="normal" 
>
</g>

<g fill="none" stroke="#000000" stroke-opacity="1" stroke-width="2" stroke-linecap="butt" stroke-linejoin="miter" stroke-miterlimit="2" transform="matrix(1,0,0,1,-1877,0)"
font-family="Bravura" font-size="40" font-weight="400" font-style="normal" 
>
</g>
</g>
</svg>
