<?xml version="1.0" encoding="UTF-8" standalone="no"?>
<!DOCTYPE score-partwise PUBLIC "-//Recordare//DTD MusicXML 4.0 Partwise//EN" "http://www.musicxml.org/dtds/partwise.dtd">
<score-partwise version="4.0">
  <work>
    <work-title>Diatonic Lead Sheets</work-title>
  </work>
  <movement-title>Waltz Op.64 No.2</movement-title>
  <identification>
    <creator type="composer">Frederic Chopin</creator>
    <encoding>
      <software>Dorico 6.1.10.6078</software>
      <encoding-date>2026-01-18</encoding-date>
      <supports type="yes" element="print" attribute="new-system" value="yes"/>
      <supports type="yes" element="print" attribute="new-page" value="yes"/>
      <supports type="yes" element="accidental"/>
      <supports type="yes" element="beam"/>
      <supports type="yes" element="stem"/>
    </encoding>
  </identification>
  <defaults>
    <scaling>
      <millimeters>6.99911</millimeters>
      <tenths>40</tenths>
    </scaling>
    <page-layout>
      <page-height>1596.77</page-height>
      <page-width>1233.87</page-width>
      <page-margins type="both">
        <left-margin>84.6774</left-margin>
        <right-margin>84.6774</right-margin>
        <top-margin>84.6774</top-margin>
        <bottom-margin>84.6774</bottom-margin>
      </page-margins>
    </page-layout>
    <appearance>
      <line-width type="beam">5</line-width>
      <line-width type="bracket">5</line-width>
      <line-width type="enclosure">1.25</line-width>
      <line-width type="ending">2</line-width>
      <line-width type="extend">0.625</line-width>
      <line-width type="heavy barline">5</line-width>
      <line-width type="leger">1.66667</line-width>
      <line-width type="light barline">2</line-width>
      <line-width type="octave shift">0.833333</line-width>
      <line-width type="pedal">1.25</line-width>
      <line-width type="slur middle">2</line-width>
      <line-width type="slur tip">0.833333</line-width>
      <line-width type="staff">1.25</line-width>
      <line-width type="stem">1.2</line-width>
      <line-width type="tie middle">2.5</line-width>
      <line-width type="tie tip">1.25</line-width>
      <line-width type="tuplet bracket">1.25</line-width>
      <line-width type="wedge">1.66667</line-width>
      <note-size type="cue">75</note-size>
      <note-size type="grace">60</note-size>
      <note-size type="grace-cue">45</note-size>
      <distance type="hyphen">75</distance>
    </appearance>
    <music-font font-family="Bravura" font-size="19.84"/>
    <word-font font-family="Academico" font-size="9.92"/>
    <lyric-font font-family="Academico" font-size="10.912" name="verse"/>
    <lyric-font font-family="Academico" font-style="italic" font-size="10.912" name="chorus"/>
    <lyric-font font-family="Academico" font-style="italic" font-size="10.912" name="verse-translation"/>
    <lyric-font font-family="Academico" font-style="italic" font-size="10.912" name="chorus-translation"/>
  </defaults>
  <credit page="1">
    <credit-type>title</credit-type>
    <credit-words font-family="Academico" font-size="20" justify="center" valign="middle" default-x="611.875" default-y="1464.38" xml:space="preserve">Diatonic Lead Sheets</credit-words>
  </credit>
  <credit page="1">
    <credit-words font-family="Academico" font-size="10" justify="left" valign="middle" default-x="83.75" default-y="1404.38" color="#C0C0C0" xml:space="preserve">Project Lyricist</credit-words>
  </credit>
  <credit page="1">
    <credit-type>composer</credit-type>
    <credit-words font-family="Academico" font-size="10" justify="right" valign="middle" default-x="1140" default-y="1404.38" color="#C0C0C0" xml:space="preserve">Project Composer</credit-words>
  </credit>
  <credit page="1">
    <credit-type>flow title</credit-type>
    <credit-words font-family="Academico" font-size="16" justify="center" valign="middle" default-x="611.875" default-y="1356.25" xml:space="preserve">1. Waltz Op.64 No.2</credit-words>
  </credit>
  <credit page="1">
    <credit-type>rights</credit-type>
    <credit-words font-family="Academico" font-size="8" justify="center" valign="bottom" default-x="611.875" default-y="84.375" color="#C0C0C0" xml:space="preserve">Project Copyright</credit-words>
  </credit>
  <part-list>
    <part-group type="start" number="1">
      <group-symbol>bracket</group-symbol>
      <group-barline>yes</group-barline>
    </part-group>
    <score-part id="P1">
      <part-name>Treble staff</part-name>
      <part-name-display>
        <display-text>Treble staff</display-text>
      </part-name-display>
      <part-abbreviation>Tr.</part-abbreviation>
      <part-abbreviation-display>
        <display-text>Tr.</display-text>
      </part-abbreviation-display>
      <score-instrument id="instrument-8">
        <instrument-name>Treble staff</instrument-name>
        <instrument-sound>keyboard.piano</instrument-sound>
      </score-instrument>
    </score-part>
    <score-part id="P2">
      <part-name>Bass staff</part-name>
      <part-name-display>
        <display-text>Bass staff</display-text>
      </part-name-display>
      <part-abbreviation>B.</part-abbreviation>
      <part-abbreviation-display>
        <display-text>B.</display-text>
      </part-abbreviation-display>
      <score-instrument id="instrument-9">
        <instrument-name>Bass staff</instrument-name>
        <instrument-sound>keyboard.piano</instrument-sound>
      </score-instrument>
    </score-part>
    <part-group type="stop" number="1">
      <group-symbol>bracket</group-symbol>
    </part-group>
  </part-list>
  <part id="P1">
    <measure number="1" width="314.375">
      <print>
        <system-layout>
          <system-margins>
            <left-margin>138.75</left-margin>
            <right-margin>0</right-margin>
          </system-margins>
          <top-system-distance>238.125</top-system-distance>
        </system-layout>
      </print>
      <attributes>
        <divisions>4</divisions>
        <key number="1">
          <fifths>4</fifths>
          <mode>minor</mode>
        </key>
        <time>
          <beats>3</beats>
          <beat-type>4</beat-type>
        </time>
        <staves>1</staves>
        <clef number="1">
          <sign>G</sign>
          <line>2</line>
        </clef>
      </attributes>
      <note default-x="132.5">
        <pitch>
          <step>G</step>
          <alter>1</alter>
          <octave>5</octave>
        </pitch>
        <duration>2</duration>
        <voice>1</voice>
        <type>eighth</type>
        <stem default-y="-45">down</stem>
        <staff>1</staff>
        <beam number="1">begin</beam>
        <notations>
          <slur type="start" number="1" orientation="over" default-x="6.875" default-y="15.625" bezier-x="29.375" bezier-y="15"/>
        </notations>
      </note>
      <note default-x="163.125">
        <pitch>
          <step>A</step>
          <octave>5</octave>
        </pitch>
        <duration>2</duration>
        <voice>1</voice>
        <type>eighth</type>
        <stem default-y="-48.125">down</stem>
        <staff>1</staff>
        <beam number="1">continue</beam>
      </note>
      <note default-x="193.125">
        <pitch>
          <step>G</step>
          <alter>1</alter>
          <octave>5</octave>
        </pitch>
        <duration>2</duration>
        <voice>1</voice>
        <type>eighth</type>
        <stem default-y="-51.25">down</stem>
        <staff>1</staff>
        <beam number="1">continue</beam>
      </note>
      <note default-x="223.75">
        <pitch>
          <step>F</step>
          <alter>1</alter>
          <octave>5</octave>
        </pitch>
        <duration>2</duration>
        <voice>1</voice>
        <type>eighth</type>
        <stem default-y="-53.75">down</stem>
        <staff>1</staff>
        <beam number="1">continue</beam>
      </note>
      <note default-x="253.75">
        <pitch>
          <step>D</step>
          <alter>1</alter>
          <octave>5</octave>
        </pitch>
        <duration>2</duration>
        <voice>1</voice>
        <type>eighth</type>
        <stem default-y="-56.875">down</stem>
        <staff>1</staff>
        <beam number="1">continue</beam>
      </note>
      <note default-x="283.75">
        <pitch>
          <step>G</step>
          <alter>1</alter>
          <octave>4</octave>
        </pitch>
        <duration>2</duration>
        <voice>1</voice>
        <type>eighth</type>
        <stem default-y="-60">down</stem>
        <staff>1</staff>
        <beam number="1">end</beam>
        <notations>
          <slur type="stop" number="1" orientation="over" default-x="6.875" default-y="-15" bezier-x="-21.25" bezier-y="25.625"/>
        </notations>
      </note>
    </measure>
    <measure number="2" width="198.75">
      <print new-system="no" new-page="no"/>
      <attributes>
        <divisions>4</divisions>
      </attributes>
      <note default-x="16.875">
        <pitch>
          <step>F</step>
          <alter>1</alter>
          <octave>5</octave>
        </pitch>
        <duration>2</duration>
        <voice>1</voice>
        <type>eighth</type>
        <stem default-y="-45">down</stem>
        <staff>1</staff>
        <beam number="1">begin</beam>
        <notations>
          <slur type="start" number="1" orientation="over" default-x="6.875" default-y="10.625" bezier-x="28.75" bezier-y="15"/>
        </notations>
      </note>
      <note default-x="47.5">
        <pitch>
          <step>G</step>
          <alter>1</alter>
          <octave>5</octave>
        </pitch>
        <duration>2</duration>
        <voice>1</voice>
        <type>eighth</type>
        <stem default-y="-48.125">down</stem>
        <staff>1</staff>
        <beam number="1">continue</beam>
      </note>
      <note default-x="77.5">
        <pitch>
          <step>F</step>
          <alter>1</alter>
          <octave>5</octave>
        </pitch>
        <duration>2</duration>
        <voice>1</voice>
        <type>eighth</type>
        <stem default-y="-51.25">down</stem>
        <staff>1</staff>
        <beam number="1">continue</beam>
      </note>
      <note default-x="107.5">
        <pitch>
          <step>E</step>
          <octave>5</octave>
        </pitch>
        <duration>2</duration>
        <voice>1</voice>
        <type>eighth</type>
        <stem default-y="-53.75">down</stem>
        <staff>1</staff>
        <beam number="1">continue</beam>
      </note>
      <note default-x="138.125">
        <pitch>
          <step>C</step>
          <alter>1</alter>
          <octave>5</octave>
        </pitch>
        <duration>2</duration>
        <voice>1</voice>
        <type>eighth</type>
        <stem default-y="-56.875">down</stem>
        <staff>1</staff>
        <beam number="1">continue</beam>
      </note>
      <note default-x="168.125">
        <pitch>
          <step>G</step>
          <alter>1</alter>
          <octave>4</octave>
        </pitch>
        <duration>2</duration>
        <voice>1</voice>
        <type>eighth</type>
        <stem default-y="-60">down</stem>
        <staff>1</staff>
        <beam number="1">end</beam>
        <notations>
          <slur type="stop" number="1" orientation="over" default-x="6.875" default-y="-17.5" bezier-x="-21.25" bezier-y="24.375"/>
        </notations>
      </note>
    </measure>
    <measure number="3" width="205">
      <print new-system="no" new-page="no"/>
      <attributes>
        <divisions>4</divisions>
      </attributes>
      <note default-x="23.125">
        <pitch>
          <step>E</step>
          <octave>5</octave>
        </pitch>
        <duration>2</duration>
        <voice>1</voice>
        <type>eighth</type>
        <stem default-y="-50">down</stem>
        <staff>1</staff>
        <beam number="1">begin</beam>
        <notations>
          <slur type="start" number="1" orientation="over" default-x="6.875" default-y="5.625" bezier-x="28.125" bezier-y="15.625"/>
        </notations>
      </note>
      <note default-x="53.75">
        <pitch>
          <step>F</step>
          <alter>1</alter>
          <octave>5</octave>
        </pitch>
        <duration>2</duration>
        <voice>1</voice>
        <type>eighth</type>
        <stem default-y="-53.125">down</stem>
        <staff>1</staff>
        <beam number="1">continue</beam>
      </note>
      <note default-x="83.75">
        <pitch>
          <step>E</step>
          <octave>5</octave>
        </pitch>
        <duration>2</duration>
        <voice>1</voice>
        <type>eighth</type>
        <stem default-y="-56.25">down</stem>
        <staff>1</staff>
        <beam number="1">continue</beam>
      </note>
      <note default-x="113.75">
        <pitch>
          <step>D</step>
          <alter>1</alter>
          <octave>5</octave>
        </pitch>
        <duration>2</duration>
        <voice>1</voice>
        <type>eighth</type>
        <stem default-y="-58.75">down</stem>
        <staff>1</staff>
        <beam number="1">continue</beam>
      </note>
      <note default-x="144.375">
        <pitch>
          <step>B</step>
          <alter>1</alter>
          <octave>4</octave>
        </pitch>
        <duration>2</duration>
        <voice>1</voice>
        <type>eighth</type>
        <accidental>sharp</accidental>
        <stem default-y="-61.875">down</stem>
        <staff>1</staff>
        <beam number="1">continue</beam>
      </note>
      <note default-x="174.375">
        <pitch>
          <step>F</step>
          <alter>1</alter>
          <octave>4</octave>
        </pitch>
        <duration>2</duration>
        <voice>1</voice>
        <type>eighth</type>
        <stem default-y="-65">down</stem>
        <staff>1</staff>
        <beam number="1">end</beam>
        <notations>
          <slur type="stop" number="1" orientation="over" default-x="6.875" default-y="-17.5" bezier-x="-22.5" bezier-y="23.75"/>
        </notations>
      </note>
    </measure>
    <measure number="4" width="198.75">
      <print new-system="no" new-page="no"/>
      <attributes>
        <divisions>4</divisions>
      </attributes>
      <note default-x="16.875">
        <pitch>
          <step>D</step>
          <alter>1</alter>
          <octave>5</octave>
        </pitch>
        <duration>2</duration>
        <voice>1</voice>
        <type>eighth</type>
        <stem default-y="-55">down</stem>
        <staff>1</staff>
        <beam number="1">begin</beam>
        <notations>
          <slur type="start" number="1" orientation="over" default-x="6.875" default-y="2.5" bezier-x="29.375" bezier-y="15"/>
        </notations>
      </note>
      <note default-x="47.5">
        <pitch>
          <step>E</step>
          <octave>5</octave>
        </pitch>
        <duration>2</duration>
        <voice>1</voice>
        <type>eighth</type>
        <stem default-y="-58.125">down</stem>
        <staff>1</staff>
        <beam number="1">continue</beam>
      </note>
      <note default-x="77.5">
        <pitch>
          <step>D</step>
          <alter>1</alter>
          <octave>5</octave>
        </pitch>
        <duration>2</duration>
        <voice>1</voice>
        <type>eighth</type>
        <stem default-y="-61.25">down</stem>
        <staff>1</staff>
        <beam number="1">continue</beam>
      </note>
      <note default-x="107.5">
        <pitch>
          <step>C</step>
          <alter>1</alter>
          <octave>5</octave>
        </pitch>
        <duration>2</duration>
        <voice>1</voice>
        <type>eighth</type>
        <stem default-y="-63.75">down</stem>
        <staff>1</staff>
        <beam number="1">continue</beam>
      </note>
      <note default-x="138.125">
        <pitch>
          <step>A</step>
          <octave>4</octave>
        </pitch>
        <duration>2</duration>
        <voice>1</voice>
        <type>eighth</type>
        <stem default-y="-66.875">down</stem>
        <staff>1</staff>
        <beam number="1">continue</beam>
      </note>
      <note default-x="168.125">
        <pitch>
          <step>E</step>
          <octave>4</octave>
        </pitch>
        <duration>2</duration>
        <voice>1</voice>
        <type>eighth</type>
        <stem default-y="-70">down</stem>
        <staff>1</staff>
        <beam number="1">end</beam>
        <notations>
          <slur type="stop" number="1" orientation="over" default-x="6.875" default-y="-27.5" bezier-x="-21.25" bezier-y="25"/>
        </notations>
      </note>
    </measure>
    <measure number="5" width="310.625">
      <print new-system="yes" new-page="no">
        <system-layout>
          <system-margins>
            <left-margin>56.25</left-margin>
            <right-margin>0</right-margin>
          </system-margins>
          <system-distance>100</system-distance>
        </system-layout>
      </print>
      <attributes>
        <divisions>4</divisions>
      </attributes>
      <note default-x="105.625">
        <pitch>
          <step>C</step>
          <alter>1</alter>
          <octave>5</octave>
        </pitch>
        <duration>2</duration>
        <voice>1</voice>
        <type>eighth</type>
        <stem default-y="-75">down</stem>
        <staff>1</staff>
        <beam number="1">begin</beam>
        <notations>
          <slur type="start" number="1" orientation="over" default-x="6.875" default-y="-4.375" bezier-x="28.75" bezier-y="21.25"/>
        </notations>
      </note>
      <note default-x="139.375">
        <pitch>
          <step>D</step>
          <alter>1</alter>
          <octave>5</octave>
        </pitch>
        <duration>2</duration>
        <voice>1</voice>
        <type>eighth</type>
        <stem default-y="-75">down</stem>
        <staff>1</staff>
        <beam number="1">continue</beam>
      </note>
      <note default-x="173.75">
        <pitch>
          <step>C</step>
          <alter>1</alter>
          <octave>5</octave>
        </pitch>
        <duration>2</duration>
        <voice>1</voice>
        <type>eighth</type>
        <stem default-y="-75">down</stem>
        <staff>1</staff>
        <beam number="1">continue</beam>
      </note>
      <note default-x="208.125">
        <pitch>
          <step>A</step>
          <octave>4</octave>
        </pitch>
        <duration>2</duration>
        <voice>1</voice>
        <type>eighth</type>
        <stem default-y="-75">down</stem>
        <staff>1</staff>
        <beam number="1">continue</beam>
      </note>
      <note default-x="241.875">
        <pitch>
          <step>D</step>
          <alter>1</alter>
          <octave>4</octave>
        </pitch>
        <duration>2</duration>
        <voice>1</voice>
        <type>eighth</type>
        <stem default-y="-75">down</stem>
        <staff>1</staff>
        <beam number="1">continue</beam>
      </note>
      <note default-x="276.25">
        <pitch>
          <step>C</step>
          <alter>1</alter>
          <octave>5</octave>
        </pitch>
        <duration>2</duration>
        <voice>1</voice>
        <type>eighth</type>
        <stem default-y="-75">down</stem>
        <staff>1</staff>
        <beam number="1">end</beam>
        <notations>
          <slur type="stop" number="1" orientation="over" default-x="6.875" default-y="-4.375" bezier-x="-28.75" bezier-y="21.25"/>
        </notations>
      </note>
    </measure>
    <measure number="6" width="221.875">
      <print new-system="no" new-page="no"/>
      <attributes>
        <divisions>4</divisions>
      </attributes>
      <note default-x="16.875">
        <pitch>
          <step>C</step>
          <alter>1</alter>
          <octave>5</octave>
        </pitch>
        <duration>2</duration>
        <voice>1</voice>
        <type>eighth</type>
        <stem default-y="20.625">up</stem>
        <staff>1</staff>
        <beam number="1">begin</beam>
        <notations>
          <slur type="start" number="1" orientation="under" default-x="6.875" default-y="-25.625" bezier-x="52.5" bezier-y="-30"/>
        </notations>
      </note>
      <note default-x="51.25">
        <pitch>
          <step>D</step>
          <alter>1</alter>
          <octave>5</octave>
        </pitch>
        <duration>2</duration>
        <voice>1</voice>
        <type>eighth</type>
        <stem default-y="20.625">up</stem>
        <staff>1</staff>
        <beam number="1">continue</beam>
      </note>
      <note default-x="85.625">
        <pitch>
          <step>C</step>
          <alter>1</alter>
          <octave>5</octave>
        </pitch>
        <duration>2</duration>
        <voice>1</voice>
        <type>eighth</type>
        <stem default-y="20.625">up</stem>
        <staff>1</staff>
        <beam number="1">continue</beam>
      </note>
      <note default-x="119.375">
        <pitch>
          <step>G</step>
          <alter>1</alter>
          <octave>4</octave>
        </pitch>
        <duration>2</duration>
        <voice>1</voice>
        <type>eighth</type>
        <stem default-y="20.625">up</stem>
        <staff>1</staff>
        <beam number="1">continue</beam>
      </note>
      <note default-x="153.75">
        <pitch>
          <step>C</step>
          <alter>1</alter>
          <octave>4</octave>
        </pitch>
        <duration>2</duration>
        <voice>1</voice>
        <type>eighth</type>
        <stem default-y="20.625">up</stem>
        <staff>1</staff>
        <beam number="1">continue</beam>
      </note>
      <note default-x="188.125">
        <pitch>
          <step>G</step>
          <alter>1</alter>
          <octave>4</octave>
        </pitch>
        <duration>2</duration>
        <voice>1</voice>
        <type>eighth</type>
        <stem default-y="20.625">up</stem>
        <staff>1</staff>
        <beam number="1">end</beam>
        <notations>
          <slur type="stop" number="1" orientation="under" default-x="6.875" default-y="-52.5" bezier-x="-17.5" bezier-y="-19.375"/>
        </notations>
      </note>
    </measure>
    <measure number="7" width="228.125">
      <print new-system="no" new-page="no"/>
      <attributes>
        <divisions>4</divisions>
      </attributes>
      <note default-x="23.125">
        <pitch>
          <step>G</step>
          <alter>1</alter>
          <octave>4</octave>
        </pitch>
        <duration>2</duration>
        <voice>1</voice>
        <type>eighth</type>
        <stem default-y="10">up</stem>
        <staff>1</staff>
        <beam number="1">begin</beam>
        <notations>
          <slur type="start" number="1" orientation="over" default-x="12.5" default-y="17.5" bezier-x="110" bezier-y="38.125"/>
        </notations>
      </note>
      <note default-x="57.5">
        <pitch>
          <step>G</step>
          <alter>1</alter>
          <octave>3</octave>
        </pitch>
        <duration>2</duration>
        <voice>1</voice>
        <type>eighth</type>
        <stem default-y="10">up</stem>
        <staff>1</staff>
        <beam number="1">continue</beam>
      </note>
      <note default-x="91.875">
        <pitch>
          <step>D</step>
          <alter>1</alter>
          <octave>4</octave>
        </pitch>
        <duration>2</duration>
        <voice>1</voice>
        <type>eighth</type>
        <stem default-y="10">up</stem>
        <staff>1</staff>
        <beam number="1">continue</beam>
      </note>
      <note default-x="125.625">
        <pitch>
          <step>G</step>
          <alter>1</alter>
          <octave>4</octave>
        </pitch>
        <duration>2</duration>
        <voice>1</voice>
        <type>eighth</type>
        <stem default-y="10">up</stem>
        <staff>1</staff>
        <beam number="1">continue</beam>
      </note>
      <note default-x="160">
        <pitch>
          <step>A</step>
          <octave>4</octave>
        </pitch>
        <duration>2</duration>
        <voice>1</voice>
        <type>eighth</type>
        <stem default-y="10">up</stem>
        <staff>1</staff>
        <beam number="1">continue</beam>
      </note>
      <note default-x="194.375">
        <pitch>
          <step>G</step>
          <alter>1</alter>
          <octave>4</octave>
        </pitch>
        <duration>2</duration>
        <voice>1</voice>
        <type>eighth</type>
        <stem default-y="10">up</stem>
        <staff>1</staff>
        <beam number="1">end</beam>
      </note>
    </measure>
    <measure number="8" width="228.125">
      <print new-system="no" new-page="no"/>
      <attributes>
        <divisions>4</divisions>
      </attributes>
      <note default-x="23.125">
        <pitch>
          <step>F</step>
          <alter>2</alter>
          <octave>4</octave>
        </pitch>
        <duration>2</duration>
        <voice>1</voice>
        <type>eighth</type>
        <accidental>double-sharp</accidental>
        <stem default-y="-65">down</stem>
        <staff>1</staff>
        <beam number="1">begin</beam>
      </note>
      <note default-x="57.5">
        <pitch>
          <step>G</step>
          <alter>1</alter>
          <octave>4</octave>
        </pitch>
        <duration>2</duration>
        <voice>1</voice>
        <type>eighth</type>
        <stem default-y="-61.875">down</stem>
        <staff>1</staff>
        <beam number="1">continue</beam>
      </note>
      <note default-x="91.25">
        <pitch>
          <step>B</step>
          <alter>1</alter>
          <octave>4</octave>
        </pitch>
        <duration>2</duration>
        <voice>1</voice>
        <type>eighth</type>
        <accidental>sharp</accidental>
        <stem default-y="-58.75">down</stem>
        <staff>1</staff>
        <beam number="1">continue</beam>
      </note>
      <note default-x="125.625">
        <pitch>
          <step>C</step>
          <alter>1</alter>
          <octave>5</octave>
        </pitch>
        <duration>2</duration>
        <voice>1</voice>
        <type>eighth</type>
        <stem default-y="-56.25">down</stem>
        <staff>1</staff>
        <beam number="1">continue</beam>
      </note>
      <note default-x="160">
        <pitch>
          <step>E</step>
          <octave>5</octave>
        </pitch>
        <duration>2</duration>
        <voice>1</voice>
        <type>eighth</type>
        <stem default-y="-53.125">down</stem>
        <staff>1</staff>
        <beam number="1">continue</beam>
      </note>
      <note default-x="194.375">
        <pitch>
          <step>F</step>
          <alter>1</alter>
          <octave>5</octave>
        </pitch>
        <duration>2</duration>
        <voice>1</voice>
        <type>eighth</type>
        <accidental cautionary="yes">sharp</accidental>
        <stem default-y="-50">down</stem>
        <staff>1</staff>
        <beam number="1">end</beam>
        <notations>
          <slur type="stop" number="1" orientation="over" default-x="6.875" default-y="13.125" bezier-x="-48.75" bezier-y="40"/>
        </notations>
      </note>
      <barline location="right">
        <bar-style>light-heavy</bar-style>
      </barline>
    </measure>
  </part>
  <part id="P2">
    <measure number="1" width="314.375">
      <print>
        <system-layout>
          <system-margins>
            <left-margin>138.75</left-margin>
            <right-margin>0</right-margin>
          </system-margins>
          <top-system-distance>238.125</top-system-distance>
        </system-layout>
        <staff-layout number="1">
          <staff-distance>60</staff-distance>
        </staff-layout>
      </print>
      <attributes>
        <divisions>4</divisions>
        <key number="1">
          <fifths>4</fifths>
          <mode>minor</mode>
        </key>
        <time>
          <beats>3</beats>
          <beat-type>4</beat-type>
        </time>
        <staves>1</staves>
        <clef number="1">
          <sign>F</sign>
          <line>4</line>
        </clef>
      </attributes>
      <note default-x="132.5">
        <pitch>
          <step>G</step>
          <alter>1</alter>
          <octave>3</octave>
        </pitch>
        <duration>12</duration>
        <voice>1</voice>
        <type>half</type>
        <dot/>
        <stem default-y="-58.75">down</stem>
        <staff>1</staff>
      </note>
      <note default-x="132.5">
        <chord/>
        <pitch>
          <step>D</step>
          <alter>1</alter>
          <octave>3</octave>
        </pitch>
        <duration>12</duration>
        <voice>1</voice>
        <type>half</type>
        <dot/>
        <stem default-y="-58.75">down</stem>
        <staff>1</staff>
      </note>
      <note default-x="132.5">
        <chord/>
        <pitch>
          <step>B</step>
          <alter>1</alter>
          <octave>2</octave>
        </pitch>
        <duration>12</duration>
        <voice>1</voice>
        <type>half</type>
        <dot/>
        <accidental>sharp</accidental>
        <stem default-y="-58.75">down</stem>
        <staff>1</staff>
      </note>
    </measure>
    <measure number="2" width="198.75">
      <print new-system="no" new-page="no"/>
      <attributes>
        <divisions>4</divisions>
      </attributes>
      <note default-x="16.875">
        <pitch>
          <step>G</step>
          <alter>1</alter>
          <octave>3</octave>
        </pitch>
        <duration>12</duration>
        <voice>1</voice>
        <type>half</type>
        <dot/>
        <stem default-y="-55">down</stem>
        <staff>1</staff>
      </note>
      <note default-x="16.875">
        <chord/>
        <pitch>
          <step>E</step>
          <octave>3</octave>
        </pitch>
        <duration>12</duration>
        <voice>1</voice>
        <type>half</type>
        <dot/>
        <stem default-y="-55">down</stem>
        <staff>1</staff>
      </note>
      <note default-x="16.875">
        <chord/>
        <pitch>
          <step>C</step>
          <alter>1</alter>
          <octave>3</octave>
        </pitch>
        <duration>12</duration>
        <voice>1</voice>
        <type>half</type>
        <dot/>
        <stem default-y="-55">down</stem>
        <staff>1</staff>
      </note>
    </measure>
    <measure number="3" width="205">
      <print new-system="no" new-page="no"/>
      <attributes>
        <divisions>4</divisions>
      </attributes>
      <note default-x="23.125">
        <pitch>
          <step>F</step>
          <alter>1</alter>
          <octave>3</octave>
        </pitch>
        <duration>12</duration>
        <voice>1</voice>
        <type>half</type>
        <dot/>
        <stem default-y="18.75">up</stem>
        <staff>1</staff>
      </note>
      <note default-x="23.125">
        <chord/>
        <pitch>
          <step>B</step>
          <alter>1</alter>
          <octave>2</octave>
        </pitch>
        <duration>12</duration>
        <voice>1</voice>
        <type>half</type>
        <dot/>
        <accidental>sharp</accidental>
        <stem default-y="18.75">up</stem>
        <staff>1</staff>
      </note>
      <note default-x="23.125">
        <chord/>
        <pitch>
          <step>G</step>
          <alter>1</alter>
          <octave>2</octave>
        </pitch>
        <duration>12</duration>
        <voice>1</voice>
        <type>half</type>
        <dot/>
        <stem default-y="18.75">up</stem>
        <staff>1</staff>
      </note>
    </measure>
    <measure number="4" width="198.75">
      <print new-system="no" new-page="no"/>
      <attributes>
        <divisions>4</divisions>
      </attributes>
      <note default-x="16.875">
        <pitch>
          <step>E</step>
          <octave>3</octave>
        </pitch>
        <duration>12</duration>
        <voice>1</voice>
        <type>half</type>
        <dot/>
        <stem default-y="15">up</stem>
        <staff>1</staff>
      </note>
      <note default-x="16.875">
        <chord/>
        <pitch>
          <step>C</step>
          <alter>1</alter>
          <octave>3</octave>
        </pitch>
        <duration>12</duration>
        <voice>1</voice>
        <type>half</type>
        <dot/>
        <stem default-y="15">up</stem>
        <staff>1</staff>
      </note>
      <note default-x="16.875">
        <chord/>
        <pitch>
          <step>A</step>
          <octave>2</octave>
        </pitch>
        <duration>12</duration>
        <voice>1</voice>
        <type>half</type>
        <dot/>
        <stem default-y="15">up</stem>
        <staff>1</staff>
      </note>
    </measure>
    <measure number="5" width="310.625">
      <print new-system="yes" new-page="no">
        <system-layout>
          <system-margins>
            <left-margin>56.25</left-margin>
            <right-margin>0</right-margin>
          </system-margins>
          <system-distance>100</system-distance>
        </system-layout>
        <staff-layout number="1">
          <staff-distance>60</staff-distance>
        </staff-layout>
      </print>
      <attributes>
        <divisions>4</divisions>
      </attributes>
      <note default-x="105.625">
        <pitch>
          <step>C</step>
          <alter>1</alter>
          <octave>3</octave>
        </pitch>
        <duration>8</duration>
        <voice>1</voice>
        <type>half</type>
        <stem default-y="7.5">up</stem>
        <staff>1</staff>
      </note>
      <note default-x="105.625">
        <chord/>
        <pitch>
          <step>A</step>
          <octave>2</octave>
        </pitch>
        <duration>8</duration>
        <voice>1</voice>
        <type>half</type>
        <stem default-y="7.5">up</stem>
        <staff>1</staff>
      </note>
      <note default-x="105.625">
        <chord/>
        <pitch>
          <step>F</step>
          <alter>1</alter>
          <octave>2</octave>
        </pitch>
        <duration>8</duration>
        <voice>1</voice>
        <type>half</type>
        <stem default-y="7.5">up</stem>
        <staff>1</staff>
      </note>
      <note default-x="241.875">
        <rest>
          <display-step>D</display-step>
          <display-octave>3</display-octave>
        </rest>
        <duration>4</duration>
        <voice>1</voice>
        <type>quarter</type>
        <staff>1</staff>
      </note>
    </measure>
    <measure number="6" width="221.875">
      <print new-system="no" new-page="no"/>
      <attributes>
        <divisions>4</divisions>
      </attributes>
      <note default-x="16.875">
        <pitch>
          <step>E</step>
          <octave>3</octave>
        </pitch>
        <duration>8</duration>
        <voice>1</voice>
        <type>half</type>
        <stem default-y="15">up</stem>
        <staff>1</staff>
      </note>
      <note default-x="16.875">
        <chord/>
        <pitch>
          <step>C</step>
          <alter>1</alter>
          <octave>3</octave>
        </pitch>
        <duration>8</duration>
        <voice>1</voice>
        <type>half</type>
        <stem default-y="15">up</stem>
        <staff>1</staff>
      </note>
      <note default-x="16.875">
        <chord/>
        <pitch>
          <step>G</step>
          <alter>1</alter>
          <octave>2</octave>
        </pitch>
        <duration>8</duration>
        <voice>1</voice>
        <type>half</type>
        <stem default-y="15">up</stem>
        <staff>1</staff>
      </note>
      <note default-x="153.75">
        <rest>
          <display-step>D</display-step>
          <display-octave>3</display-octave>
        </rest>
        <duration>4</duration>
        <voice>1</voice>
        <type>quarter</type>
        <staff>1</staff>
      </note>
    </measure>
    <measure number="7" width="228.125">
      <print new-system="no" new-page="no"/>
      <attributes>
        <divisions>4</divisions>
      </attributes>
      <note default-x="23.125">
        <pitch>
          <step>F</step>
          <alter>1</alter>
          <octave>3</octave>
        </pitch>
        <duration>12</duration>
        <voice>1</voice>
        <type>half</type>
        <dot/>
        <stem default-y="18.75">up</stem>
        <staff>1</staff>
      </note>
      <note default-x="23.125">
        <chord/>
        <pitch>
          <step>B</step>
          <alter>1</alter>
          <octave>2</octave>
        </pitch>
        <duration>12</duration>
        <voice>1</voice>
        <type>half</type>
        <dot/>
        <accidental>sharp</accidental>
        <stem default-y="18.75">up</stem>
        <staff>1</staff>
      </note>
      <note default-x="23.125">
        <chord/>
        <pitch>
          <step>G</step>
          <alter>1</alter>
          <octave>2</octave>
        </pitch>
        <duration>12</duration>
        <voice>1</voice>
        <type>half</type>
        <dot/>
        <stem default-y="18.75">up</stem>
        <staff>1</staff>
      </note>
    </measure>
    <measure number="8" width="228.125">
      <print new-system="no" new-page="no"/>
      <attributes>
        <divisions>4</divisions>
      </attributes>
      <note default-x="23.125">
        <pitch>
          <step>G</step>
          <alter>1</alter>
          <octave>3</octave>
        </pitch>
        <duration>12</duration>
        <voice>1</voice>
        <type>half</type>
        <dot/>
        <stem default-y="-55">down</stem>
        <staff>1</staff>
      </note>
      <note default-x="23.125">
        <chord/>
        <pitch>
          <step>E</step>
          <octave>3</octave>
        </pitch>
        <duration>12</duration>
        <voice>1</voice>
        <type>half</type>
        <dot/>
        <stem default-y="-55">down</stem>
        <staff>1</staff>
      </note>
      <note default-x="23.125">
        <chord/>
        <pitch>
          <step>C</step>
          <alter>1</alter>
          <octave>3</octave>
        </pitch>
        <duration>12</duration>
        <voice>1</voice>
        <type>half</type>
        <dot/>
        <stem default-y="-55">down</stem>
        <staff>1</staff>
      </note>
      <barline location="right">
        <bar-style>light-heavy</bar-style>
      </barline>
    </measure>
  </part>
</score-partwise>